<svg xmlns="http://www.w3.org/2000/svg" viewBox="0 0 500 500"><g id="freepik--background-complete--inject-15"><rect y="382.4" width="500" height="0.25" style="fill:#ebebeb"></rect><rect x="52.46" y="391.92" width="77.91" height="0.25" style="fill:#ebebeb"></rect><rect x="412" y="399.53" width="37.9" height="0.25" style="fill:#ebebeb"></rect><rect x="131.37" y="401.21" width="19.19" height="0.25" style="fill:#ebebeb"></rect><rect x="202.17" y="389.21" width="43.19" height="0.25" style="fill:#ebebeb"></rect><rect x="254.26" y="389.21" width="6.33" height="0.25" style="fill:#ebebeb"></rect><rect x="327.67" y="395.31" width="43.22" height="0.25" style="fill:#ebebeb"></rect><path d="M237,337.8H43.91a5.71,5.71,0,0,1-5.7-5.71V60.66A5.71,5.71,0,0,1,43.91,55H237a5.71,5.71,0,0,1,5.71,5.71V332.09A5.71,5.71,0,0,1,237,337.8ZM43.91,55.2a5.46,5.46,0,0,0-5.45,5.46V332.09a5.46,5.46,0,0,0,5.45,5.46H237a5.47,5.47,0,0,0,5.46-5.46V60.66A5.47,5.47,0,0,0,237,55.2Z" style="fill:#ebebeb"></path><path d="M453.31,337.8H260.21a5.72,5.72,0,0,1-5.71-5.71V60.66A5.72,5.72,0,0,1,260.21,55h193.1A5.71,5.71,0,0,1,459,60.66V332.09A5.71,5.71,0,0,1,453.31,337.8ZM260.21,55.2a5.47,5.47,0,0,0-5.46,5.46V332.09a5.47,5.47,0,0,0,5.46,5.46h193.1a5.47,5.47,0,0,0,5.46-5.46V60.66a5.47,5.47,0,0,0-5.46-5.46Z" style="fill:#ebebeb"></path><path d="M168.45,341.81c25.94,14.57,60.25-21,80-56.41s42.68,48,80.45,56.41,70.1-78.15,92.76-50.94,33.82,79.87,33.82,79.87H117.22S142.51,327.25,168.45,341.81Z" style="fill:#ebebeb"></path><path d="M373,324.81c-.88-5,1.09-11.62-.77-16.21s-7.74-7.49-9.92-12-.67-10.58-2.46-15.27-7-8.36-7.77-13.44c-.79-5.4,2.71-10.55,2.31-15-.45-4.91-4.78-9.12-5.39-14.12-.52-4.37,2.71-9.68,1.59-15.06-.88-4.22-5.89-7.94-7.37-13.25-1.14-4.1,2.32-8.29,2.33-11.47,0-4.58-2.67-9.21-1.19-11.7,2.59-4.4,6.68-3.17,9-.1,1.43,1.93,5.78,4.52,5.11,9.8-.61,4.85-4.91,9.28-4.92,13.8,0,4.89,4.29,9.28,5,13.74.74,4.83-2,10.38-.42,14.64,1.65,4.53,7.3,6.93,9.87,10.74s.3,10.31,1.14,16c.72,4.82,5.05,9.61,5.49,14.9s-3,11-2,15.88c1.1,5.28,6.4,8.65,9.22,12.72,1.22,1.78-1.34,5.3-.73,6.65,1,2.28,5.08,3.54,4.82,4.8-.4,2-4.44.55-6.26.92C377.05,322.26,374.46,327.06,373,324.81Z" style="fill:#ebebeb"></path><path d="M390.55,319.8c-.95-5.44,2.56-10.45,2.37-15.73s-4.15-10.7-4.11-16.08,4.05-10.78,3.78-16.22c-.27-5.24-4.77-10.08-5.82-15.55-1.13-5.86,1.67-11.7.58-16.46-1.2-5.26-6.28-9.34-7.41-14.74-1-4.72,2-10.5,1.07-16.44-.72-4.66-5.37-9.34-6-15.33-.47-4.21,2.73-8.64,1.86-11.79-1.25-4.52-6.41-6.31-8-8.67-3.45-5.18-7.25-6.41-7.53-1.51-.14,2.44,4.38,5.49,6.22,10.32s-.3,11,1.07,15.7c1.48,5,6.56,9.06,7.47,13.86,1,5.21-2.32,10.75-2,15.59.34,5.33,4.25,10.5,3.74,15.29s-3.78,10.6-2.59,16.8c1,5.19,6.25,9.9,7.56,15.51s-1.4,11.8-.57,17.16c.92,5.91,5.3,11.51,4.72,16.6-.22,1.89-4.31,3.29-4.33,4.71,0,2.08,4.08,3.27,4.38,4.52.57,2.45-.78,5.87.39,6.17C389.56,324.07,390.05,322.24,390.55,319.8Z" style="fill:#ebebeb"></path><path d="M364,340c-1.38-4.24,1.71-8.46,1.08-12.56-.65-4.27-5-8-5.42-12.24s3.13-8.95,2.4-13.25c-.69-4.05-5.52-7.18-7-11.42-1.59-4.57.65-9.88-.81-13.6-1.61-4.1-6.9-6.52-8.45-10.71-1.38-3.72,1.05-9-.35-13.62-1.11-3.7-6.1-6.77-7.26-11.53-.85-3.46,1.84-7.78.65-10.33-1.62-3.5-6.71-3.93-8.45-5.74-3.65-3.82-7.46-5.36-7.53-1.9,0,1.89,4.62,3.89,7,7.91,2.16,3.72.57,9.24,2.27,12.82,1.87,3.92,7.15,6.22,8.45,9.93,1.45,4.13-1.3,9.16-.56,13,.83,4.33,5.16,8.13,5,12s-2.83,8.85-1.13,13.77c1.4,4,6.91,6.89,8.63,11.21s-.4,9.88.86,14c1.43,4.72,6.25,8.74,6.1,12.78-.07,1.65-4,3.19-3.89,4.4.2,1.79,4.35,2,4.85,3,.86,1.69.06,5.22,1.25,5.36C363.76,343.54,363.75,342.15,364,340Z" style="fill:#ebebeb"></path><path d="M413.5,332.89c.19-3.93,3.8-8.7,3.29-12.61s-5.18-7.12-5.89-11,2.55-8.33,2.1-12.23-4.62-7.72-4.33-11.67c.3-4.19,4.68-7.36,5.09-10.73.46-3.72-3.06-7.65-2.69-11.51.31-3.32,4.54-6.68,4.62-10.91.07-3.28-3.95-6.91-4.1-11.13-.11-3.13,4.07-5.5,4.5-7.73.68-3.46-1.56-7.6-.23-9.05,2.4-2.6,4.77-.15,5.68,3.05.52,1.82,4.24,4.58,3.09,8s-5.95,5.93-6.64,9.35c-.73,3.61,2.76,7.68,2.56,11.17-.22,3.66-4.12,7.35-3.75,10.83s5,6.36,6,9.74-2.73,7.95-3,12.25c-.26,3.78,3.15,8.16,2.63,12.22s-4.93,7.66-5,11.57c-.07,4.08,4.2,7.49,5.36,11.2.46,1.48-3.09,3.71-2.9,4.79.33,1.77,4.25,3.14,4,4-.42,1.76-3.27-.37-4.57-.61C417.6,331.6,414.09,334.78,413.5,332.89Z" style="fill:#ebebeb"></path><path d="M403.14,330.94c-.47-5.12,3.37-9.43,3.49-14.24.11-5-3.55-10.1-3.24-15S408,292,408.05,287c.06-4.79-4.08-9.51-4.63-14.66-.59-5.54,2.75-10.81,2.14-15.36-.69-5-5.33-9.23-5.95-14.35-.54-4.51,2.94-9.71,2.52-15.31-.33-4.42-4.61-9.11-4.82-14.74-.15-3.9,3.44-7.79,2.92-10.81-.73-4.23-5.54-6.45-6.62-8.91-2.53-5.77-5.58-7.58-6-3-.22,2.19,4.05,5.32,5.24,10s-1.67,10.23-.83,14.73c.91,4.86,5.56,9,6.05,13.49.53,5-3.19,9.91-3.18,14.4,0,5.06,3.65,10.1,3,14.46s-4.36,9.53-3.73,15.46c.52,4.88,5.26,9.65,6,15s-2.55,10.9-2.16,15.91c.44,5.65,4.45,11.14,3.71,15.72-.26,1.65-4.4,2.65-4.49,3.93-.13,1.8,3.88,3.14,4,4.32.26,2.14-2.34,5.13-1.57,5.77C401.39,334.51,402.52,333.06,403.14,330.94Z" style="fill:#ebebeb"></path><path d="M415.22,361.37c-35.11,10.59-81.55-15.26-108.22-41s-57.77,34.9-108.89,41-94.89-56.81-125.55-37S26.78,382.4,26.78,382.4H484.56S450.33,350.78,415.22,361.37Z" style="fill:#f5f5f5"></path><path d="M81.88,340.62c1.05-21.17-13.44-39.3-11.56-61s7-31.92,4.6-60.82,29-33.82,19-11.81S83,248.82,91.52,264.42s-8.85,45,1.57,63.47S81.88,340.62,81.88,340.62Z" style="fill:#f5f5f5"></path><path d="M107,339.83c1.17-23.18,12.8-43.12,13.44-66.91s-2-34.9,2.24-66.56-17-36.85-12.08-12.81,3.8,45.77-3.47,62.91,2.12,49.17-6.74,69.49S107,339.83,107,339.83Z" style="fill:#f5f5f5"></path><path d="M65.5,356.33c-2.57-18.58,5.51-34.19,2.34-53.28s-7.46-28.12-8.44-53.42-22.34-30.21-13.73-10.72,11,36.92,6.67,50.43,9.88,39.59,4.55,55.61S65.5,356.33,65.5,356.33Z" style="fill:#f5f5f5"></path><path d="M134.28,355.87c5.49-15.91,1-32.76,7.08-48.93s11.5-22.87,16.73-45.38,25.15-19.71,14.1-5-16.15,29.62-14.63,43.3-15.64,32.4-13.64,48.68S134.28,355.87,134.28,355.87Z" style="fill:#f5f5f5"></path><path d="M120.59,353.44c3.41-21.67,14.48-38.82,17.55-61.14s2.3-33.16,9-62.4-9-37.11-7.85-13.77-2.06,43.66-9.49,58.78S126,321.53,117,339.44,120.59,353.44,120.59,353.44Z" style="fill:#f5f5f5"></path><path d="M215.15,246.76a5.42,5.42,0,1,1-5.42-5.43A5.42,5.42,0,0,1,215.15,246.76Z" style="fill:#f5f5f5"></path><circle cx="78.81" cy="150.14" r="3.19" style="fill:#f5f5f5"></circle><circle cx="84" cy="133.33" r="2" style="fill:#f5f5f5"></circle><circle cx="410.9" cy="192.32" r="4.1" style="fill:#f5f5f5"></circle><circle cx="417.2" cy="134.63" r="4.1" style="fill:#f5f5f5"></circle><circle cx="394.62" cy="158.56" r="2.57" style="fill:#f5f5f5"></circle><path d="M323.28,110.71s2.2-8.34,14.83-8.57,22.27,8,22.27,8-26.68,18.23-37.05,1.3" style="fill:#f5f5f5"></path><path d="M356,109s6.9-6.28,12.59-7a21.13,21.13,0,0,0-7.14,7.83s3.77,4.65,9.5,5.39C357.94,115.52,356,109,356,109Z" style="fill:#f5f5f5"></path><path d="M329.42,104.69c2.91-3.81,13.89-7.4,13.89-7.4s-4.78,4.82-1.91,7.39C331.24,105,329.42,104.69,329.42,104.69Z" style="fill:#f5f5f5"></path><path d="M330.61,116a25.32,25.32,0,0,0,9.67,4.56s-1.92-2.47-1.53-4.3S330.61,116,330.61,116Z" style="fill:#f5f5f5"></path><path d="M296.38,75.7S300,71,308,74.28s11.9,11,11.9,11-21.73,4.31-23.72-9.17" style="fill:#f5f5f5"></path><path d="M317.48,83.44s6-2.1,9.83-1a14.52,14.52,0,0,0-6.61,3,11.14,11.14,0,0,0,4.54,6C317,88.06,317.48,83.44,317.48,83.44Z" style="fill:#f5f5f5"></path><path d="M301.88,73.55c2.86-1.62,10.75-.93,10.75-.93s-4.31,1.75-3.19,4.15A71.32,71.32,0,0,1,301.88,73.55Z" style="fill:#f5f5f5"></path><path d="M299.57,81a17.34,17.34,0,0,0,4.88,5.48s-.55-2.07.18-3.12S299.57,81,299.57,81Z" style="fill:#f5f5f5"></path><path d="M284,113s.39-5.16,7.8-6.67,14,2.28,14,2.28-13.74,13.65-21.7,4.8" style="fill:#f5f5f5"></path><path d="M303.05,108.46s3.39-4.45,6.66-5.49a12.72,12.72,0,0,0-3.35,5.4,9.76,9.76,0,0,0,6.19,2.14C304.9,112.08,303.05,108.46,303.05,108.46Z" style="fill:#f5f5f5"></path><path d="M286.91,108.81c1.3-2.56,7.38-5.88,7.38-5.88s-2.29,3.36-.32,4.57A63.46,63.46,0,0,1,286.91,108.81Z" style="fill:#f5f5f5"></path><path d="M288.85,115.36A15.17,15.17,0,0,0,295,117s-1.4-1.25-1.37-2.37S288.85,115.36,288.85,115.36Z" style="fill:#f5f5f5"></path><path d="M264.06,91.57s1.64-3.14,6.72-2.1A15.16,15.16,0,0,1,279,94.68s-12.34,4.9-15-2.82" style="fill:#f5f5f5"></path><path d="M277.35,93.84s3.33-1.9,5.68-1.67a8.65,8.65,0,0,0-3.57,2.5,6.66,6.66,0,0,0,3.33,3C277.54,96.62,277.35,93.84,277.35,93.84Z" style="fill:#f5f5f5"></path><path d="M267.07,89.71c1.51-1.27,6.24-1.72,6.24-1.72s-2.35,1.5-1.43,2.79A43.16,43.16,0,0,1,267.07,89.71Z" style="fill:#f5f5f5"></path><path d="M266.53,94.36a10.41,10.41,0,0,0,3.46,2.7,2.81,2.81,0,0,1-.22-1.86C270.09,94.51,266.53,94.36,266.53,94.36Z" style="fill:#f5f5f5"></path><path d="M161.65,208.64s4.8-7.16,16.82-3.27,18.45,14.81,18.45,14.81-31.16,8.53-35.45-10.86" style="fill:#f5f5f5"></path><path d="M193.15,217.7s8.57-3.68,14.18-2.5a21.1,21.1,0,0,0-9.3,5.08s2,5.63,7.23,8.19C192.85,224.48,193.15,217.7,193.15,217.7Z" style="fill:#f5f5f5"></path><path d="M169.42,205c4-2.65,15.55-2.47,15.55-2.47s-6.1,3-4.21,6.36C171.05,205.8,169.42,205,169.42,205Z" style="fill:#f5f5f5"></path><path d="M166.85,216.05a25.4,25.4,0,0,0,7.66,7.47s-1-3,0-4.56S166.85,216.05,166.85,216.05Z" style="fill:#f5f5f5"></path><path d="M107.52,89s5-3.23,11.49,2.46,7.65,14.32,7.65,14.32-22-3-19.44-16.4" style="fill:#f5f5f5"></path><path d="M125,103.19s6.4,0,9.62,2.24a14.57,14.57,0,0,0-7.24.7,11.15,11.15,0,0,0,2.36,7.11C122.94,107.38,125,103.19,125,103.19Z" style="fill:#f5f5f5"></path><path d="M113.42,88.76c3.23-.6,10.47,2.62,10.47,2.62s-4.65.25-4.37,2.88A72.52,72.52,0,0,1,113.42,88.76Z" style="fill:#f5f5f5"></path><path d="M108.8,95.07a17.52,17.52,0,0,0,2.82,6.77s.16-2.14,1.2-2.89S108.8,95.07,108.8,95.07Z" style="fill:#f5f5f5"></path><path d="M66.32,98.77S68.37,94,75.88,95s12.49,6.72,12.49,6.72-17.44,8.43-22.08-2.53" style="fill:#f5f5f5"></path><path d="M85.87,100.68s4.65-3.11,8.09-3a12.6,12.6,0,0,0-4.93,4,9.72,9.72,0,0,0,5.15,4C86.44,104.7,85.87,100.68,85.87,100.68Z" style="fill:#f5f5f5"></path><path d="M70.5,95.74c2.06-2,8.89-3.15,8.89-3.15S76.13,95,77.6,96.8A59.73,59.73,0,0,1,70.5,95.74Z" style="fill:#f5f5f5"></path><path d="M70.19,102.57a15.15,15.15,0,0,0,5.33,3.57s-.92-1.64-.53-2.69S70.19,102.57,70.19,102.57Z" style="fill:#f5f5f5"></path><path d="M50,69.2s2.57-2.44,7,.2A15.15,15.15,0,0,1,63.15,77s-13.27.62-13.24-7.55" style="fill:#f5f5f5"></path><path d="M61.86,75.67s3.77-.71,5.92.27a8.69,8.69,0,0,0-4.19,1.2,6.68,6.68,0,0,0,2.16,3.94C61.14,78.36,61.86,75.67,61.86,75.67Z" style="fill:#f5f5f5"></path><path d="M53.49,68.42c1.84-.71,6.46.4,6.46.4s-2.71.66-2.26,2.18A45.74,45.74,0,0,1,53.49,68.42Z" style="fill:#f5f5f5"></path><path d="M51.46,72.64a10.45,10.45,0,0,0,2.4,3.68,2.78,2.78,0,0,1,.39-1.83C54.78,73.93,51.46,72.64,51.46,72.64Z" style="fill:#f5f5f5"></path></g><g id="freepik--Shadow--inject-15"><ellipse id="freepik--path--inject-15" cx="250" cy="416.24" rx="193.89" ry="11.32" style="fill:#f5f5f5"></ellipse></g><g id="freepik--otter-1--inject-15"><path d="M310,348.52a47.28,47.28,0,0,1-24.34,13.31c-14.95,2.8-17.6,8-8.42,11.28,13,4.63,39.06-6.3,56.94-13.58C334.4,354,322.21,348.76,310,348.52Z" style="fill:#C53F3F"></path><path d="M310,348.52a47.28,47.28,0,0,1-24.34,13.31c-14.95,2.8-17.6,8-8.42,11.28,13,4.63,39.06-6.3,56.94-13.58C334.4,354,322.21,348.76,310,348.52Z" style="opacity:0.2"></path><path d="M212.94,284.07c-6,8.71-14.27,33.07-19.76,25.82s-25.11-1.81-25.46,9.72,10.3-5.8,23.19,3.18,38.8,2.53,52-4.73S212.94,284.07,212.94,284.07Z" style="fill:#C53F3F"></path><path d="M212.94,284.07c-6,8.71-14.27,33.07-19.76,25.82s-25.11-1.81-25.46,9.72,10.3-5.8,23.19,3.18,38.8,2.53,52-4.73S212.94,284.07,212.94,284.07Z" style="opacity:0.2"></path><path d="M402.25,310.31c-1.3-2.3-6-2.58-14.06,4.33l8.5,4.43S403.55,312.6,402.25,310.31Z" style="fill:#C53F3F"></path><path d="M402.25,310.31c-1.3-2.3-6-2.58-14.06,4.33l8.5,4.43S403.55,312.6,402.25,310.31Z" style="opacity:0.2"></path><path d="M139.43,262.24c51.1-11.27,82.93,9,128.21,34.39s72.27,21,96.07,18.49c20-8.38,41.47.73,42.87,12.49s-1,28.57-58.06,35.81c-63.16,8-89.22-14.28-117.11-33.68s-47.35-45.46-81.91-41.17S70.38,279,56.63,233.44c-10.47-34.69,19.21-54.89,44.23-57.21a1.36,1.36,0,0,1,.42,2.69c-22,4.78-42.71,19-29.3,53.66C83.27,261.83,121.19,264.34,139.43,262.24Z" style="fill:#C53F3F"></path><path d="M381.47,309.84c1.22-1.94,7.42,1.75,11.6,4.69l-8.75-.85S380.24,311.78,381.47,309.84Z" style="fill:#C53F3F"></path><path d="M374.22,310.27c.76-1.71,6.18.55,9.9,2.44L377,313S373.45,312,374.22,310.27Z" style="fill:#C53F3F"></path><path d="M280.89,353c.86-9.81-59.66-32.64-77.31-51.14C196,294,187.63,291.11,182,294c17.13,8.16,31.54,23.32,49.39,35.74,15.17,10.56,29.8,22,50.16,28.89Z" style="fill:#fff;opacity:0.5"></path><path d="M354.77,322.59c.27-2.37,4.37-4.9,14.57-2,.32,4.11-2.18,7.38-5.82,7.61C363.52,328.15,354.38,326.05,354.77,322.59Z" style="fill:#C53F3F"></path><path d="M354.77,322.59c.27-2.37,4.37-4.9,14.57-2,.32,4.11-2.18,7.38-5.82,7.61C363.52,328.15,354.38,326.05,354.77,322.59Z" style="opacity:0.4"></path><path d="M356.68,324.63a2,2,0,0,0,.11.9,25.31,25.31,0,0,0,6.73,2.62c3.17-.19,5.47-2.7,5.8-6.07C360.53,320.05,356.92,322.41,356.68,324.63Z" style="fill:#C53F3F;opacity:0.5"></path><path d="M382.2,332.33c1,1.55,1.26,3.2.51,3.71s-2.2-.34-3.24-1.88-1.26-3.2-.51-3.7S381.16,330.79,382.2,332.33Z" style="fill:#263238"></path><path d="M401.64,326.71c.76,1.69.71,3.36-.11,3.73s-2.12-.69-2.88-2.38-.72-3.37.11-3.74S400.87,325,401.64,326.71Z" style="fill:#263238"></path><path d="M398.79,340.92a1.69,1.69,0,1,1-1.45,2.24A1.92,1.92,0,0,1,398.79,340.92Z" style="fill:#263238"></path><path d="M402.54,334.12l-13.82,3.75c-6.4,2.24-7.07,9.46,2.16,7.74,5.74-1.06,7.87-2.3,8.13-4.14.9.84,2.43.86,5.17-.08C409.56,339.54,406.65,333.72,402.54,334.12Z" style="fill:#C53F3F"></path><path d="M402.54,334.12l-13.82,3.75c-6.4,2.24-7.07,9.46,2.16,7.74,5.74-1.06,7.87-2.3,8.13-4.14.9.84,2.43.86,5.17-.08C409.56,339.54,406.65,333.72,402.54,334.12Z" style="fill:#fff;opacity:0.2"></path><path d="M407.09,338.65a.38.38,0,0,0-.49.21c-.72,1.81-3.19,2.4-4.22,2.58a5.59,5.59,0,0,1-3-.11,6.18,6.18,0,0,0-1.11-3.26.38.38,0,0,0-.52-.12.37.37,0,0,0-.13.51,5.35,5.35,0,0,1,1,3,3,3,0,0,1-1.05,1.27c-1,.82-4.73,3.42-11.58,2.4a.37.37,0,0,0-.42.31.38.38,0,0,0,.31.43,18.9,18.9,0,0,0,7-.15,12,12,0,0,0,5.43-2.6,4.67,4.67,0,0,0,.92-1.07,5,5,0,0,0,1.74.25,10.51,10.51,0,0,0,2.14-.26c1.7-.37,3.54-1.23,4.22-2.92A.38.38,0,0,0,407.09,338.65Z" style="fill:#C53F3F"></path><path d="M407.09,338.65a.38.38,0,0,0-.49.21c-.72,1.81-3.19,2.4-4.22,2.58a5.59,5.59,0,0,1-3-.11,6.18,6.18,0,0,0-1.11-3.26.38.38,0,0,0-.52-.12.37.37,0,0,0-.13.51,5.35,5.35,0,0,1,1,3,3,3,0,0,1-1.05,1.27c-1,.82-4.73,3.42-11.58,2.4a.37.37,0,0,0-.42.31.38.38,0,0,0,.31.43,18.9,18.9,0,0,0,7-.15,12,12,0,0,0,5.43-2.6,4.67,4.67,0,0,0,.92-1.07,5,5,0,0,0,1.74.25,10.51,10.51,0,0,0,2.14-.26c1.7-.37,3.54-1.23,4.22-2.92A.38.38,0,0,0,407.09,338.65Z" style="opacity:0.2"></path><path d="M387.73,336.76c1-2.1,14.89-6.15,15.19-3.38.24,2.22-3.38,1.48-4,4.7-.44,2.24-3.94-1-6.44-.27S386.37,339.5,387.73,336.76Z" style="fill:#C53F3F"></path><path d="M387.73,336.76c1-2.1,14.89-6.15,15.19-3.38.24,2.22-3.38,1.48-4,4.7-.44,2.24-3.94-1-6.44-.27S386.37,339.5,387.73,336.76Z" style="fill:#fff;opacity:0.5"></path><path d="M372.22,331.7h-.12a1.5,1.5,0,0,1-1.38-1.59,5.5,5.5,0,0,1,5.43-5.13,1.5,1.5,0,0,1,.15,3,2.49,2.49,0,0,0-2.59,2.35A1.49,1.49,0,0,1,372.22,331.7Z" style="fill:#fff;opacity:0.15"></path><path d="M400.38,323.45a1.52,1.52,0,0,1-.94-.33,3.55,3.55,0,0,0-4-.5,1.5,1.5,0,0,1-1.57-2.56,6.55,6.55,0,0,1,7.48.71,1.5,1.5,0,0,1-.93,2.68Z" style="fill:#fff;opacity:0.15"></path><path d="M284,343.3s-18,12.31-33.25,12-18.87,4.21-10.56,9.3c11.73,7.21,39.52,1.88,58.51-1.55C300.11,357.61,295.94,346.06,284,343.3Z" style="fill:#C53F3F"></path><path d="M187.09,278.14c-3,10.11-22.35,21.2-31,18.3s-26.57,12.81-19.93,22.25c5,7.06,5.23-10.6,20.94-10.45S201.68,320.58,214,312C234.62,297.68,187.09,278.14,187.09,278.14Z" style="fill:#C53F3F"></path><path d="M389,341.66a.23.23,0,0,1-.11,0c-.07,0-7.15-3.21-12.54-.41a.25.25,0,1,1-.23-.44c5.61-2.92,12.69.26,13,.4a.25.25,0,0,1,.13.33A.28.28,0,0,1,389,341.66Z" style="fill:#263238"></path><path d="M372.27,347.05a.23.23,0,0,1-.18-.08.25.25,0,0,1,0-.36c4.63-4.27,13.18-4.49,13.54-4.5a.24.24,0,0,1,.26.25.25.25,0,0,1-.25.25c-.08,0-8.72.23-13.21,4.37A.23.23,0,0,1,372.27,347.05Z" style="fill:#263238"></path><path d="M402.76,337.29l-.12,0a.25.25,0,0,1-.1-.34,8.5,8.5,0,0,1,8.95-3.94.25.25,0,0,1,.19.3.25.25,0,0,1-.29.19,8,8,0,0,0-8.41,3.69A.24.24,0,0,1,402.76,337.29Z" style="fill:#263238"></path><path d="M404.12,339a.25.25,0,0,1-.2-.09.24.24,0,0,1,0-.35,18.21,18.21,0,0,1,13.28-3.29.25.25,0,0,1-.09.5,17.72,17.72,0,0,0-12.88,3.18A.21.21,0,0,1,404.12,339Z" style="fill:#263238"></path><circle cx="324.78" cy="306.64" r="6.39" style="fill:#C53F3F;opacity:0.1"></circle><path d="M307,292.59a5.1,5.1,0,1,1-3.59-6.26A5.11,5.11,0,0,1,307,292.59Z" style="fill:#C53F3F;opacity:0.1"></path><circle cx="416.75" cy="346.8" r="3.79" transform="translate(-117.26 253.08) rotate(-29.81)" style="fill:#C53F3F;opacity:0.1"></circle><path d="M430.47,331a2.86,2.86,0,1,1-2-3.51A2.86,2.86,0,0,1,430.47,331Z" style="fill:#C53F3F;opacity:0.1"></path><path d="M423.44,312.39a1.84,1.84,0,1,1-1.29-2.25A1.82,1.82,0,0,1,423.44,312.39Z" style="fill:#C53F3F;opacity:0.1"></path></g><g id="freepik--otter-2--inject-15"><path d="M188.34,66.7c-1.44-2-6.19-2.41-13.29,4.92,1.86,3.87,5.64,5.68,8.81,4.19C183.86,75.81,190.46,69.66,188.34,66.7Z" style="fill:#C53F3F"></path><path d="M188.34,66.7c-1.44-2-6.19-2.41-13.29,4.92,1.86,3.87,5.64,5.68,8.81,4.19C183.86,75.81,190.46,69.66,188.34,66.7Z" style="opacity:0.4"></path><path d="M187.79,69.44a2.17,2.17,0,0,1,.37.87,22.64,22.64,0,0,1-4.3,5.5c-2.76,1.3-6,.09-8-2.81C182.2,67.08,186.44,67.54,187.79,69.44Z" style="fill:#C53F3F;opacity:0.5"></path><path d="M286.54,222.83c7.88-7,30.15-6.32,36,.67s29.33,3,28.64-8.48c-.52-8.61-10,6.28-23.32-2.09S296.39,179,281.39,179.87C256.33,181.25,286.54,222.83,286.54,222.83Z" style="fill:#C53F3F"></path><path d="M311.88,210.62c-13.89-15.78-29-26.74-33.51-25.85-15,6.94,8.17,38.06,8.17,38.06,6-5.36,20.39-6.22,29.46-3.22A17,17,0,0,0,311.88,210.62Z" style="opacity:0.2"></path><path d="M195.23,146.6s21.67,2.73,32.84,13.05,17.87,9,14.08,0c-7.72-18.28-31.68-24.53-46.16-43.41-2.77,1.86-4.21,12.51-4.45,18.2A19.28,19.28,0,0,0,195.23,146.6Z" style="fill:#C53F3F"></path><path d="M195.67,116.52c-2.56,2.42-3.9,12.46-4.13,17.94a19.34,19.34,0,0,0,3.69,12.15,88,88,0,0,1,21.86,6.12C206.63,142,199.65,127.87,195.67,116.52Z" style="opacity:0.2"></path><path d="M321.16,237.05c-28.28-42.57-27.28-57.41-69.7-63.1-42.11-5.65-56.19-49.83-57.28-71a47.13,47.13,0,0,0-3.37-15.74C182.57,67.42,165.4,63,150.27,70.37c-8.72,4.24-22.44,13.69-9.36,44.53,2.89,6.82,5,18.66,7.7,28.72,16.48,61.49,45.9,76.7,78.74,85.37,31.58,8.33,35.39,1.39,74.74,37.31,26.06,23.79,82.16,6.68,98-30.33C413,205.73,388,174.85,350.86,178.79c25,5,51.5,30.36,33.78,51.6C372.06,245.47,336,259.37,321.16,237.05Z" style="fill:#C53F3F"></path><path d="M302,217c-15.12-25-19.19-31.74-48.21-35.64s-46.24-23-55.81-42.85a18.38,18.38,0,0,0-23.14-9.21h0a18.41,18.41,0,0,0-10.26,24.54c19,43.95,44.23,56.45,69,63,6.47,1.7,11.79,2.76,16.49,3.68,18.15,3.58,28.35,6.35,52.58,27.16a8,8,0,0,0,13-4.18h0a8,8,0,0,0-1.08-6.3C309.59,229.53,305.58,222.9,302,217Z" style="fill:#fff;opacity:0.5"></path><path d="M131.47,75.11c1-2.26,5.64-3.53,14,2.33-1.09,4.16-4.47,6.64-7.86,5.77C137.58,83.21,130,78.41,131.47,75.11Z" style="fill:#C53F3F"></path><path d="M131.47,75.11c1-2.26,5.64-3.53,14,2.33-1.09,4.16-4.47,6.64-7.86,5.77C137.58,83.21,130,78.41,131.47,75.11Z" style="opacity:0.4"></path><path d="M132.53,77.69a2.13,2.13,0,0,0-.21.92,23.09,23.09,0,0,0,5.26,4.6c3,.76,5.9-1,7.33-4.26C137.57,74.32,133.5,75.57,132.53,77.69Z" style="fill:#C53F3F;opacity:0.5"></path><path d="M159.8,88.75c.81,1.7.75,3.39-.15,3.79s-2.28-.67-3.09-2.36-.74-3.39.15-3.79S159,87.06,159.8,88.75Z" style="fill:#263238"></path><path d="M180.1,87.11c.28,1.85-.28,3.48-1.25,3.63s-2-1.23-2.26-3.08.28-3.48,1.24-3.63S179.81,85.26,180.1,87.11Z" style="fill:#263238"></path><path d="M174,101.18c3.15-.55,5.83-.26,6,.64s-2.28,2.07-5.43,2.62-5.83.25-6-.65S170.88,101.72,174,101.18Z" style="fill:#263238"></path><path d="M179.29,94.92l-15.41,1.71c-7.23,1.29-9.29,8.41.86,8.07,6.29-.22,8.79-1.14,9.42-2.94.8,1,2.42,1.22,5.52.68C185.75,101.39,183.74,95.13,179.29,94.92Z" style="fill:#C53F3F"></path><path d="M179.29,94.92l-15.41,1.71c-7.23,1.29-9.29,8.41.86,8.07,6.29-.22,8.79-1.14,9.42-2.94.8,1,2.42,1.22,5.52.68C185.75,101.39,183.74,95.13,179.29,94.92Z" style="fill:#fff;opacity:0.2"></path><path d="M183.29,100.13a.43.43,0,0,0-.56.14c-1.11,1.7-3.85,1.93-5,2a6.18,6.18,0,0,1-3.17-.55,5.76,5.76,0,0,0-.58-3.43.41.41,0,0,0-.52-.2.38.38,0,0,0-.23.5,5,5,0,0,1,.51,3.17c0,.13-.41.58-1.35,1.11-1.2.68-5.68,2.72-12.77.69a.43.43,0,0,0-.52.25.38.38,0,0,0,.26.48,21.59,21.59,0,0,0,7.43.87,14,14,0,0,0,6.26-1.79,5.24,5.24,0,0,0,1.18-.94,5.35,5.35,0,0,0,1.8.51,12.38,12.38,0,0,0,2.33.06c1.88-.12,4-.71,5-2.3A.36.36,0,0,0,183.29,100.13Z" style="fill:#C53F3F"></path><path d="M183.29,100.13a.43.43,0,0,0-.56.14c-1.11,1.7-3.85,1.93-5,2a6.18,6.18,0,0,1-3.17-.55,5.76,5.76,0,0,0-.58-3.43.41.41,0,0,0-.52-.2.38.38,0,0,0-.23.5,5,5,0,0,1,.51,3.17c0,.13-.41.58-1.35,1.11-1.2.68-5.68,2.72-12.77.69a.43.43,0,0,0-.52.25.38.38,0,0,0,.26.48,21.59,21.59,0,0,0,7.43.87,14,14,0,0,0,6.26-1.79,5.24,5.24,0,0,0,1.18-.94,5.35,5.35,0,0,0,1.8.51,12.38,12.38,0,0,0,2.33.06c1.88-.12,4-.71,5-2.3A.36.36,0,0,0,183.29,100.13Z" style="opacity:0.2"></path><path d="M163,95.36c1.5-2,17-3.94,16.79-1.13-.16,2.26-3.87,1-5.15,4.12-.89,2.17-4-1.55-6.8-1.23S161.08,97.91,163,95.36Z" style="fill:#C53F3F"></path><path d="M163,95.36c1.5-2,17-3.94,16.79-1.13-.16,2.26-3.87,1-5.15,4.12-.89,2.17-4-1.55-6.8-1.23S161.08,97.91,163,95.36Z" style="fill:#fff;opacity:0.5"></path><path d="M147.75,88a1.57,1.57,0,0,1-.37-.05,1.49,1.49,0,0,1-1.08-1.83,6,6,0,0,1,6.56-4.26,1.5,1.5,0,1,1-.29,3,3,3,0,0,0-3.37,2A1.5,1.5,0,0,1,147.75,88Z" style="fill:#fff;opacity:0.15"></path><path d="M184.05,83a1.48,1.48,0,0,1-1.08-.46,4.19,4.19,0,0,0-4.38-1.11,1.5,1.5,0,0,1-1.11-2.79,7.19,7.19,0,0,1,7.65,1.82A1.5,1.5,0,0,1,184.05,83Z" style="fill:#fff;opacity:0.15"></path><path d="M155.32,111.08h0a.25.25,0,0,1-.22-.28c.83-6.37,8-10.63,8.29-10.81a.25.25,0,0,1,.34.09.26.26,0,0,1-.09.35c-.07,0-7.25,4.31-8,10.44A.26.26,0,0,1,155.32,111.08Z" style="fill:#263238"></path><path d="M158.09,117.61a.26.26,0,0,1-.25-.21c-1-6.29,4-13.68,4.26-14a.25.25,0,0,1,.41.29c0,.07-5.13,7.54-4.18,13.63a.25.25,0,0,1-.2.28Z" style="fill:#263238"></path><path d="M190.16,104.66a.27.27,0,0,1-.18-.08c-4.08-4.46-11.34-6.33-11.41-6.35a.25.25,0,0,1,.12-.49c.08,0,7.48,1.93,11.66,6.5a.26.26,0,0,1,0,.36A.27.27,0,0,1,190.16,104.66Z" style="fill:#263238"></path><path d="M187,110.47a.25.25,0,0,1-.24-.17c-2.27-7.12-9.12-10-9.19-10.07a.26.26,0,0,1-.13-.33.25.25,0,0,1,.33-.14c.07,0,7.12,3,9.47,10.39a.25.25,0,0,1-.16.31Z" style="fill:#263238"></path><path d="M157.62,162.09s21.45,4.11,31.93,15.13,17.25,10.14,14,.94c-6.52-18.75-30-26.53-43.27-46.31-2.87,1.69-5,12.22-5.61,17.89A19.25,19.25,0,0,0,157.62,162.09Z" style="fill:#C53F3F"></path><path d="M267.69,214.11l-5.26,23.44a66.56,66.56,0,0,1,11.05,5.74C274.22,232.31,271.94,217.92,267.69,214.11Z" style="opacity:0.2"></path><path d="M234.83,212.22A11.2,11.2,0,0,0,240,230.5c11.88,3.45,21.19,4.55,18.52,26.1-1.11,9,15.11,25.32,23.92,17.88,6.6-5.56-11-4.28-12.26-19.94s6-41-6-50.09C253.53,196.37,242.67,203.64,234.83,212.22Z" style="fill:#C53F3F"></path><path d="M160.78,63.66c-2.07-2.31-9.49,4-14.4,8.86l11.46-3.1S162.85,66,160.78,63.66Z" style="fill:#C53F3F"></path><path d="M169.25,64c-1.49-2.37-9,2.13-14.14,5.71l10.66-1S170.75,66.32,169.25,64Z" style="fill:#C53F3F"></path><path d="M213.3,90.84a6.39,6.39,0,1,1-6.39-6.39A6.4,6.4,0,0,1,213.3,90.84Z" style="fill:#C53F3F;opacity:0.1"></path><circle cx="199.93" cy="72.25" r="5.1" style="fill:#C53F3F;opacity:0.1"></circle><path d="M221.16,63.3a3.79,3.79,0,1,1-3.79-3.79A3.79,3.79,0,0,1,221.16,63.3Z" style="fill:#C53F3F;opacity:0.1"></path><path d="M203.38,47.05a2.86,2.86,0,1,1-2.86-2.86A2.86,2.86,0,0,1,203.38,47.05Z" style="fill:#C53F3F;opacity:0.1"></path></g></svg>