<svg xmlns="http://www.w3.org/2000/svg" viewBox="0 0 500 500"><g id="freepik--Floor--inject-17"><g id="freepik--floor--inject-17"><ellipse id="freepik--Grass--inject-17" cx="252.02" cy="370.51" rx="236.3" ry="114.39" style="fill:#BA68C8"></ellipse><ellipse id="freepik--grass--inject-17" cx="252.02" cy="370.51" rx="236.3" ry="114.39" style="fill:#fff;opacity:0.75"></ellipse><path d="M419.11,289.62c-65.95-31.92-161.17-41-243.83-27.32L475.21,408.15C504,368,485.33,321.68,419.11,289.62Z" style="fill:#fafafa"></path><path d="M415.34,287.86q-2-.94-4.11-1.86l-93.61,45.52,4,1.93Z" style="fill:#e0e0e0"></path><path d="M230.16,289l4,1.93,66.52-32.35c-2.22-.22-4.43-.43-6.66-.63Z" style="fill:#e0e0e0"></path><path d="M480.49,341.25c-.55-1-1.12-2-1.73-3l-73.67,35.83,4,1.93Z" style="fill:#e0e0e0"></path></g></g><g id="freepik--Shadows--inject-17"><path id="freepik--Shadow--inject-17" d="M344.68,377.88A21.81,21.81,0,0,0,329,376.35c-6.2,1.61-21.49,2.67-26.78,6.32-7.95,5.48-9.33,10.1-18.81,18.23-6.42,5.5-18.55,15.6-27.18,16.45a33.42,33.42,0,0,1-12.78-1.57c8.34-16.81,1.07-35.66-21.87-48.9-33.62-19.42-88.14-19.42-121.77,0s-33.62,50.89,0,70.3c20.94,12.09,50,16.64,77,13.68,7.2,5,27.16,16.74,40.55,18.67,11.47,1.65,20.48-2.13,29.52-9.12,3-2.3,17.91-15.47,17.91-15.47a17.55,17.55,0,0,0,8.88-.58c5.1-1.81,7.7-6.08,11.24-9.91,9.35-10.07,17.81-18.84,29.38-26.2,4.46-2.84,10-6.57,13.08-8.93,4.32-3.33,2.4-7,0-8.62C331.71,386,352.55,381.38,344.68,377.88Z" style="fill:#BA68C8;opacity:0.2"></path><path id="freepik--shadow--inject-17" d="M386.85,343.36c-3.64-.19-8-.35-10.37,2-2.68,2.61-1.54,6.63.95,8.83,4.49,4,11.56,4.8,17.24,5.64a208,208,0,0,0,53.47.58c5.86-.67,11.85-1.06,17.47-3,4.11-1.41,10.68-4.41,10.81-9.59.05-2.18-2.52-4.29-4.37-5.21-6.44-3.21-12.94-3.69-20.06-3.36-9.32.43-18.66,2.76-27.89,4.47a85.36,85.36,0,0,1-21.6.84c-4.23-.28-8.4-1.11-12.65-1.1C389,343.47,387.93,343.41,386.85,343.36Z" style="opacity:0.05"></path><path id="freepik--shadow--inject-17" d="M294.75,297c2.59.95,5,2.08,7.66,3.34,4.38,2.1,8.36,4.93,12.83,6.91,7.25,3.22,15.26,5,23.19,3.83a31.9,31.9,0,0,0,12-3.76,6.46,6.46,0,0,0,1.77-9.9c-3.23-3.61-10.34-5.7-14.85-7-5-1.41-10.06-2.28-15.18-3.2-6.66-1.19-13.28-2.54-19.8-4.35a99.11,99.11,0,0,1-10.54-3.32c-3.57-1.44-6.66-2.82-10.6-3.14-4.49-.36-12.51,1.21-12.47,7.1,0,2.41,2.45,4.52,4.32,5.86,4.77,3.4,11.42,4.78,17,6.18A43.08,43.08,0,0,1,294.75,297Z" style="opacity:0.05"></path></g><g id="freepik--Clouds--inject-17"><g id="freepik--clouds--inject-17"><path id="freepik--Cloud--inject-17" d="M417.16,24.11,425.54,29a10.67,10.67,0,0,1-.07-1.11V25.41c0-4.32,3-6.07,6.78-3.91a13,13,0,0,1,4,3.88c.62-5.43,4.88-7.45,10.06-4.47,5.59,3.24,10.13,11.1,10.13,17.56V42.1a9.52,9.52,0,0,1-.86,4.21l7,4a8.3,8.3,0,0,1,3.76,6.51c0,2.39-1.68,3.36-3.76,2.17L417.16,32.79a8.32,8.32,0,0,1-3.76-6.51C413.4,23.88,415.09,22.91,417.16,24.11Z" style="fill:#f5f5f5"></path><path id="freepik--cloud--inject-17" d="M370.29,41.45l6.58,3.79a6.47,6.47,0,0,1-.06-.87v-1.9c0-3.39,2.38-4.77,5.31-3.07a10.26,10.26,0,0,1,3.17,3c.48-4.26,3.82-5.84,7.88-3.5,4.39,2.53,7.95,8.7,7.95,13.77v2.84a7.47,7.47,0,0,1-.68,3.3L405.9,62a6.52,6.52,0,0,1,3,5.11c0,1.88-1.32,2.64-3,1.7L370.29,48.25a6.52,6.52,0,0,1-2.94-5.1C367.35,41.27,368.67,40.51,370.29,41.45Z" style="fill:#f5f5f5"></path></g></g><g id="freepik--Leaves--inject-17"><g id="freepik--Leave--inject-17"><path d="M76.68,413.94c-5.4,1.82-7.77,8.61-10.54,9.86C73,425.43,79.47,424.3,82,421S82.23,412.07,76.68,413.94Z" style="fill:#BA68C8"></path><path d="M76.68,413.94c-5.4,1.82-7.77,8.61-10.54,9.86C73,425.43,79.47,424.3,82,421S82.23,412.07,76.68,413.94Z" style="fill:#fff;opacity:0.30000000000000004"></path><path d="M84.46,411.62a11.7,11.7,0,0,0-1.23,1.64c-.51.74-1,1.48-1.61,2.19a19.72,19.72,0,0,1-3.14,3.25,21,21,0,0,1-3.72,2.38,33.54,33.54,0,0,1-4.23,1.68s-.07.15,0,.15a15.6,15.6,0,0,0,8-3.53,22.81,22.81,0,0,0,6-7.63C84.58,411.69,84.54,411.53,84.46,411.62Z" style="fill:#BA68C8"></path></g><g id="freepik--leave--inject-17"><path d="M295.8,459.85c-5.55.54-10.38-4.58-13.36-4.59,5.46-4.19,11.7-5.78,15.26-3.8S301.5,459.3,295.8,459.85Z" style="fill:#BA68C8"></path><path d="M295.8,459.85c-5.55.54-10.38-4.58-13.36-4.59,5.46-4.19,11.7-5.78,15.26-3.8S301.5,459.3,295.8,459.85Z" style="fill:#fff;opacity:0.30000000000000004"></path><path d="M303.68,458.82a12.45,12.45,0,0,1-1.75-1c-.76-.46-1.53-.9-2.32-1.31a19.73,19.73,0,0,0-4.11-1.65,20.59,20.59,0,0,0-4.27-.64,33.07,33.07,0,0,0-4.45.2s-.13-.11-.06-.13a15.2,15.2,0,0,1,8.61-.07A19.32,19.32,0,0,1,299.7,456a18.76,18.76,0,0,1,4,2.69C303.76,458.71,303.78,458.86,303.68,458.82Z" style="fill:#BA68C8"></path></g><g id="freepik--leave--inject-17"><path d="M120,437.88c4.29,3.57,11.16,2.07,13.63,3.74-2.16-6.54-6.41-11.37-10.46-11.75S115.58,434.21,120,437.88Z" style="fill:#BA68C8"></path><path d="M120,437.88c4.29,3.57,11.16,2.07,13.63,3.74-2.16-6.54-6.41-11.37-10.46-11.75S115.58,434.21,120,437.88Z" style="fill:#fff;opacity:0.30000000000000004"></path><path d="M114.06,432.58a13.41,13.41,0,0,0,2,.19c.88,0,1.77.11,2.65.21a19.42,19.42,0,0,1,4.32,1,19.94,19.94,0,0,1,3.89,1.88,34.18,34.18,0,0,1,3.57,2.67s.16,0,.12-.07a15.22,15.22,0,0,0-7.07-4.91,19.46,19.46,0,0,0-4.59-1,18.59,18.59,0,0,0-4.83,0C114.06,432.45,114,432.56,114.06,432.58Z" style="fill:#BA68C8"></path></g><g id="freepik--leave--inject-17"><path d="M262.8,377.69c5.12,2.2,11.28-1.19,14.12-.29-3.92-5.66-9.37-9.08-13.36-8.29S257.54,375.42,262.8,377.69Z" style="fill:#BA68C8"></path><path d="M262.8,377.69c5.12,2.2,11.28-1.19,14.12-.29-3.92-5.66-9.37-9.08-13.36-8.29S257.54,375.42,262.8,377.69Z" style="fill:#fff;opacity:0.30000000000000004"></path><path d="M255.62,374.29a13.07,13.07,0,0,0,2-.39c.87-.21,1.73-.39,2.61-.55a19.77,19.77,0,0,1,4.41-.31,21.26,21.26,0,0,1,4.27.7,32.62,32.62,0,0,1,4.17,1.55s.16-.06.1-.11a15.37,15.37,0,0,0-8.17-2.7,20,20,0,0,0-4.7.31,19.26,19.26,0,0,0-4.64,1.34S255.5,374.3,255.62,374.29Z" style="fill:#BA68C8"></path></g><g id="freepik--leave--inject-17"><path d="M110.42,380c-5.13,2.21-11.29-1.18-14.13-.28,3.92-5.66,9.38-9.08,13.37-8.29S115.68,377.77,110.42,380Z" style="fill:#BA68C8"></path><path d="M110.42,380c-5.13,2.21-11.29-1.18-14.13-.28,3.92-5.66,9.38-9.08,13.37-8.29S115.68,377.77,110.42,380Z" style="fill:#fff;opacity:0.30000000000000004"></path><path d="M117.6,376.64a12,12,0,0,1-2-.39c-.86-.2-1.73-.39-2.6-.54a18.82,18.82,0,0,0-8.68.39,32.76,32.76,0,0,0-4.18,1.55s-.15-.07-.1-.11a15.29,15.29,0,0,1,8.18-2.7,18.93,18.93,0,0,1,4.69.31,18.57,18.57,0,0,1,4.64,1.34C117.64,376.52,117.71,376.65,117.6,376.64Z" style="fill:#BA68C8"></path></g><g id="freepik--leave--inject-17"><path d="M53.62,364.36c-5.23,2.26-11.53-1.21-14.43-.29,4-5.78,9.58-9.28,13.66-8.47S59,362,53.62,364.36Z" style="fill:#BA68C8"></path><path d="M53.62,364.36c-5.23,2.26-11.53-1.21-14.43-.29,4-5.78,9.58-9.28,13.66-8.47S59,362,53.62,364.36Z" style="fill:#fff;opacity:0.30000000000000004"></path><path d="M61,360.89a12.77,12.77,0,0,1-2-.4c-.88-.21-1.77-.4-2.66-.56a19.5,19.5,0,0,0-4.51-.31,20.77,20.77,0,0,0-4.36.71,34,34,0,0,0-4.26,1.58s-.16-.06-.11-.1a15.59,15.59,0,0,1,8.36-2.76,19.74,19.74,0,0,1,4.79.31A19.59,19.59,0,0,1,61,360.73S61.08,360.9,61,360.89Z" style="fill:#BA68C8"></path></g></g><g id="freepik--character-3--inject-17"><g id="freepik--Character--inject-17"><path id="freepik--Arm--inject-17" d="M444.37,149c6.93,1.72,9.65,2.32,12.72,8.28s7.71,27.82,9.05,32.36,1.73,6.19.84,11.15c-.92,5.16-4.44,14.26-6,19.25-.71,2.32-1.22,4.57-1.77,6.95a54.25,54.25,0,0,1-2.68,7.09,6.78,6.78,0,0,1-2.18,2.82c-.61.48-1.39.49-2,.93s-.76,1.26-1.54,1.6-1.85.07-2.62.48a21.47,21.47,0,0,1-2.38,1.39,4.82,4.82,0,0,0-2,1c-.51.51-1,1.69-1.92,1.56s-1.09-1.11-1.1-1.94a7.56,7.56,0,0,1,1.78-4.37,40.81,40.81,0,0,1,3.05-4,10.39,10.39,0,0,0,2.31-4.08c.37-1,.33-2.31-1-1.78-1.59.63-3.3,2-5.15,1.62-1.28-.29-1.3-1.31-.51-2.12a37.75,37.75,0,0,0,3.6-4.28c1.12-1.55,2.06-3.19,3.22-4.7a25,25,0,0,1,2-2.22c2-2,2.05-4.77,2.39-7.37.47-3.62.85-7.25,1.2-10.89a6.27,6.27,0,0,0,.19-2l-7.67-21.31Z" style="fill:#f0f0f0"></path><g id="freepik--Bottom--inject-17"><path d="M399,328.1c2.08-1.48,3.77-2.06,4.08-.9s-.31,4.49-.31,4.49l-1.11,3.06-.16,2.76s-.69,1.65-.73,1.77-2.07-4.53-2.07-4.53S396.06,329.58,399,328.1Z" style="fill:#e0e0e0"></path><path d="M399,328.1c2.08-1.48,3.77-2.06,4.08-.9s-.31,4.49-.31,4.49l-1.11,3.06-.16,2.76s-.69,1.65-.73,1.77-2.07-4.53-2.07-4.53S396.06,329.58,399,328.1Z" style="opacity:0.2"></path><path d="M452.63,324.34s-12.27-20.07-18.45-32c-4.57-8.84-4.95-10.54-5.91-16.24-2.07-12.24-2.56-15.11-2.56-15.11l-5,24.32c.51,2.69,1.53,8,1.44,11.11a116.89,116.89,0,0,1-2.31,18,185.11,185.11,0,0,1-4.7,19.84c-1,.63-3.84.63-6.29.44a29.68,29.68,0,0,1-7-1.6s-.76-29-.89-36.91c-.15-9.56-.18-13.31-.25-18.56-.12-8.35-.74-20.47.27-35.76,2-30.43,9.57-44,9.57-44L446,194.58c2.46,10.39,8.47,11.85,8.48,25.89,0,3.18-2,9.41-2.27,14.35-.9,16-3.48,41.06-3.48,41.06,3.71,3.65,6.4,6.92,8.71,15.11,1.4,5,5.8,20.82,7.12,25.28C459.08,317.52,452.63,324.34,452.63,324.34Z" style="fill:#e0e0e0"></path><path d="M409.55,235.34c-4.65-2.82-5.54-9.38-2.46-18.62l-.89-.29c-3.3,9.9-2.17,16.94,3.17,19.9-2.42,13.64-3.14,26.42-3.31,40.86-.19,16.16-.38,43.89-.46,56.93l.94.2c.08-13,.27-40.88.46-57.12.25-21.33,1.69-39,8.11-61.26l-.91-.26C412.21,222.59,410.7,229.06,409.55,235.34Zm37.67-13.11c.63,1.59,3,3.76,4.48,3.76h0a5.11,5.11,0,0,0,2.12-1.09c.09-.47.21-1.1.29-1.56a7.34,7.34,0,0,1-2.43,1.71h0c-1,0-3.07-1.82-3.6-3.17a9.5,9.5,0,0,1-.4-2.58,26.64,26.64,0,0,0-.63-4.36l-.91.22a25.48,25.48,0,0,1,.6,4.22A10.27,10.27,0,0,0,447.22,222.23Zm-9.6,56.24c-1.12-6.75-2.55-28.66-2.26-41.5a11.46,11.46,0,0,0,6.43-7.15c3-6.75,1.87-13-.28-16.73l-.82.48c2,3.42,3.07,9.21.41,15.49-3.25,5.72-10.43,6.38-10.43,6.38l-5,25.51,2.56,15.11-.49-14.92,6-23.49.67-.26c-.25,12.94,1.17,34.53,2.28,41.24,1,6.28,15.44,33.62,19.95,42.06l.75-.59C452.83,311.53,438.62,284.49,437.62,278.47Zm-5.81-47.77c1.37-.26,2.46-1.15,4.64-3.8,1.67-2,1.54-3.51,1.33-6-.07-.91-.16-1.93-.19-3.2l-.94,0c0,1.3.12,2.34.19,3.26.21,2.44.31,3.55-1.11,5.28-2,2.45-3,3.26-4.1,3.48s-5.84-.71-7.09-1.62c-.72-.53-1.79-6.85-2.36-12.4l-.94.09c.29,2.81,1.34,12.05,2.74,13.07,1.24.91,5.33,1.83,7.22,1.83A3.4,3.4,0,0,0,431.81,230.7Z" style="opacity:0.18"></path><path d="M378.59,346.87c-.58-.09-.62,2.11-.47,2.85s2.39,3.28,6.59,4.41,10.74.57,13.27.63,4.91,1.37,8.41,2c3.1.59,7.38.05,8.94-1.27a2.83,2.83,0,0,0,.75-2.29c.05-1.63-.08-2-.27-2Z" style="fill:#e0e0e0"></path><path d="M416.09,347.61a13.62,13.62,0,0,1-.24,4.76c-.6,1.18-2.26,1.74-3.42,2-3.05.69-5.31.37-8.56-.48a25.87,25.87,0,0,0-6.46-1.08,63,63,0,0,1-8.8-.23,21.6,21.6,0,0,1-6.36-1.75c-1.68-.85-3.31-1.91-3.67-3.67a5.71,5.71,0,0,1,3.7-5.45c2-.93,4.44-.82,6.63-.87,2.71-.07,3.72.15,6.48-.42,1.46-.3,3.47.4,4.22-1.15.89-1.82.43-5.4.82-7.35a1.12,1.12,0,0,1,.45-.83c.41-.23.9.08,1.27.36A13.64,13.64,0,0,0,408,333.8c5.82,1.05,7.52-.94,7.52-.94l.35-1.21s1.26.28.66,3a38.23,38.23,0,0,0-1,6.88A22.59,22.59,0,0,0,416.09,347.61Z" style="fill:#e0e0e0"></path><path d="M416.09,347.61a13.62,13.62,0,0,1-.24,4.76c-.6,1.18-2.26,1.74-3.42,2-3.05.69-5.31.37-8.56-.48a25.87,25.87,0,0,0-6.46-1.08,63,63,0,0,1-8.8-.23,21.6,21.6,0,0,1-6.36-1.75c-1.68-.85-3.31-1.91-3.67-3.67a5.71,5.71,0,0,1,3.7-5.45c2-.93,4.44-.82,6.63-.87,2.71-.07,3.72.15,6.48-.42,1.46-.3,3.47.4,4.22-1.15.89-1.82.43-5.4.82-7.35a1.12,1.12,0,0,1,.45-.83c.41-.23.9.08,1.27.36A13.64,13.64,0,0,0,408,333.8c5.82,1.05,7.52-.94,7.52-.94l.35-1.21s1.26.28.66,3a38.23,38.23,0,0,0-1,6.88A22.59,22.59,0,0,0,416.09,347.61Z" style="opacity:0.1"></path><path d="M389.93,340.83c-2.11.84-1.69,4.52-1.69,4.52a19.21,19.21,0,0,0,6.84.22c3.92-.79,5.68-3.34,5.75-6.53s-2-7.06-2.51-8.33a2,2,0,0,1,.64-2.61c-1.88,1.13-2,2.42-1.5,4s1.39,4.7,1,5.93S394.89,340.65,389.93,340.83Z" style="fill:#e0e0e0"></path><path d="M389.93,340.83c-2.11.84-1.69,4.52-1.69,4.52a19.21,19.21,0,0,0,6.84.22c3.92-.79,5.68-3.34,5.75-6.53s-2-7.06-2.51-8.33a2,2,0,0,1,.64-2.61c-1.88,1.13-2,2.42-1.5,4s1.39,4.7,1,5.93S394.89,340.65,389.93,340.83Z" style="opacity:0.1"></path><path d="M452.23,323.17c-1.27,1.69-2.68,2.88.72,5.27,2.62,1.84,2.74,3.28,3.52,5.18s.49,5.71.49,5.71,4.79-6.81,3.58-11.32S452.23,323.17,452.23,323.17Z" style="fill:#e0e0e0"></path><path d="M452.23,323.17c-1.27,1.69-2.68,2.88.72,5.27,2.62,1.84,2.74,3.28,3.52,5.18s.49,5.71.49,5.71,4.79-6.81,3.58-11.32S452.23,323.17,452.23,323.17Z" style="opacity:0.1"></path><path d="M467.11,319.63c.82,1.28,2.79,2.4,4.41,3.48,1.14.75,2.32,1.49,2.63,2.83,0,.15-.72.95-.7,1.11a8,8,0,0,1-.13,1.95c-.33,2.25-1.61,3.88-1.94,6.12a16.52,16.52,0,0,1-.57,2.64,16.27,16.27,0,0,0-.35,3.21c-.1,1.12-.21,2.24-.3,3.36a5.82,5.82,0,0,0-.1,1.44c.09.48-7.67,4.11-10.79,5.5-.18.08-.36.14-.57.21a8,8,0,0,1-5.6-.71c-6.08-2.41-5.63-4.62-5.63-4.62s-.12-2.57,3-4.21a8,8,0,0,1,1.19-.51l.06,0a8,8,0,0,1,4.78-.11,8.28,8.28,0,0,0,.5-2.81,33,33,0,0,0,.2-4.32,11.3,11.3,0,0,0-1.72-4.59c-1.25-1.84-2.6-4.16-3.45-5.47-1-1.15-1-4.33,4.25-7.84,5-3.36,8.57-2.53,9.22-1A19.94,19.94,0,0,0,467.11,319.63Z" style="fill:#e0e0e0"></path><path d="M467.11,319.63c.82,1.28,2.79,2.4,4.41,3.48,1.14.75,2.32,1.49,2.63,2.83,0,.15-.72.95-.7,1.11a8,8,0,0,1-.13,1.95c-.33,2.25-1.61,3.88-1.94,6.12a16.52,16.52,0,0,1-.57,2.64,16.27,16.27,0,0,0-.35,3.21c-.1,1.12-.21,2.24-.3,3.36a5.82,5.82,0,0,0-.1,1.44c.09.48-7.67,4.11-10.79,5.5-.18.08-.36.14-.57.21a8,8,0,0,1-5.6-.71c-6.08-2.41-5.63-4.62-5.63-4.62s-.12-2.57,3-4.21a8,8,0,0,1,1.19-.51l.06,0a8,8,0,0,1,4.78-.11,8.28,8.28,0,0,0,.5-2.81,33,33,0,0,0,.2-4.32,11.3,11.3,0,0,0-1.72-4.59c-1.25-1.84-2.6-4.16-3.45-5.47-1-1.15-1-4.33,4.25-7.84,5-3.36,8.57-2.53,9.22-1A19.94,19.94,0,0,0,467.11,319.63Z" style="opacity:0.1"></path><path d="M453.22,343.44a4.64,4.64,0,0,1,2.24-2.37,6.56,6.56,0,0,1,1.08.23C455.9,341.89,453.66,342.69,453.22,343.44Z" style="opacity:0.1"></path><path d="M474.85,327.27c1.35.62.15,2.8-1.59,6.05a12.87,12.87,0,0,0-1.88,8.17c.24,3-.5,4.42-1.82,5.42s-11,4.91-11,4.91a17.55,17.55,0,0,0,4.06-9.92c.71-6.54,1.46-10.73,4.8-13.49A7.83,7.83,0,0,1,474.85,327.27Z" style="fill:#e0e0e0"></path><g style="opacity:0.18"><path d="M474.85,327.27c1.35.62.15,2.8-1.59,6.05a12.87,12.87,0,0,0-1.88,8.17c.24,3-.5,4.42-1.82,5.42s-11,4.91-11,4.91a17.55,17.55,0,0,0,4.06-9.92c.71-6.54,1.46-10.73,4.8-13.49A7.83,7.83,0,0,1,474.85,327.27Z"></path></g><path d="M447.46,346.15c.12,1.28,3.7,4,8,4.06s4.71-.83,5.53-5.87,1.48-12,3.76-15,5.2-4.64,9.38-3.42c.47.25,1.74,1.59,1.21,2.79,0,0,0-1-1.67-1.51-1.47-.47-3.24-.48-5.77,1.58-2.95,2.4-3.76,8.21-4.24,13.22s-2.18,9.77-6.34,10.09a12.36,12.36,0,0,1-9.91-3.39A4.57,4.57,0,0,1,447.46,346.15Z" style="fill:#e0e0e0"></path></g><g id="freepik--Top--inject-17"><path d="M412.12,117.24a5.53,5.53,0,0,1-.55-5.5c.69-1.78,2.14-3.66,6.38-5.85,5-2.61,18.88-4.46,25.73,4.6,1,1.3-12.64,26.9-12,32.21-3.53-3.71-15.19-16.77-15.19-16.77-2.76-1.18-4.43-2.18-5-4.78A6.43,6.43,0,0,1,412.12,117.24Z" style="fill:#e0e0e0"></path><path d="M414.19,124.49s-3.72,6.09-3.31,6.59a18.88,18.88,0,0,0,2.76,1.83Z" style="fill:#e0e0e0"></path><path d="M418.83,113.38c-2.5,1.18-4.67,3.1-5.45,8.59-.2,1.44.92,3.4.41,5.31-2.18,8.18.4,15,2,16.5,1.07,1,6.69,1.47,9.63.65,3.69-1,11.7-4.65,15.52-10.41,4.49-6.78,5.54-15.9.54-19.56C434.44,109.31,421.5,112.11,418.83,113.38Z" style="fill:#f0f0f0"></path><path d="M438,137.88,439.45,148h0c2.25.48,2.46,3.15,1.34,5.17l.52,2.84-15.4,2.82-1.73-14.12Z" style="fill:#f0f0f0"></path><path d="M416.08,144c1.31.72,4.19,1.26,8.1.71l-.23-2a24.63,24.63,0,0,1-3.81,1.1A14.16,14.16,0,0,1,416.08,144Z" style="fill:#e0e0e0"></path><path d="M415.13,116.31c-.14,3.56,2.09,4.68,3.68,5.38a7.7,7.7,0,0,0-.65,4.2c.36,1.8,1,3.28,2.82,3.88,1.09.37,1.41-.11,1.79-1,.56-1.22,1.25-3.09,3.87-2.73,3,.41,3.79,4.93,2,7.89a4.4,4.4,0,0,1-3.38,2.28,2.75,2.75,0,0,1-2.05-1s.2,3.95,5.27,6.29c0,0,5.12,2.88,10.37,1.33a101.89,101.89,0,0,0,6.68-8.22c5.54-8,6.64-22.64-2.79-25.27-.45-.12-9-1.32-13.16-.42C416.84,111.76,415.15,115.69,415.13,116.31Z" style="fill:#e0e0e0"></path><path d="M451.56,156.24c-1.38-4.49-5.95-6.87-7.34-7.27s-4.77-1-4.77-1c.78,1.78-.54,2.95-2.85,3.49-3,.69-7.51.77-10.59-1.28l-1.26-.78a101.49,101.49,0,0,0-9.95,3c-.67.31-4.37,1.56-10.22,14.66-2.49,5.6-1.74,11.29,2.84,15.33.26,3.55.58,11.07.58,11.07-1.9,11.8-3.4,20.66-3.4,20.66s2.76,7.25,24.46,7.18c16.81-.06,25.05-8.14,25.05-8.14-.2-4.14-6.46-18.6-5.82-23.44C449.3,182.65,455.77,170,451.56,156.24Z" style="fill:#e0e0e0"></path><g style="opacity:0.1"><path d="M451.56,156.24c-1.38-4.49-5.95-6.87-7.34-7.27s-4.77-1-4.77-1c.78,1.78-.54,2.95-2.85,3.49-3,.69-7.51.77-10.59-1.28l-1.26-.78a101.49,101.49,0,0,0-9.95,3c-.67.31-4.37,1.56-10.22,14.66-2.49,5.6-1.74,11.29,2.84,15.33.26,3.55.58,11.07.58,11.07-1.9,11.8-3.4,20.66-3.4,20.66s2.76,7.25,24.46,7.18c16.81-.06,25.05-8.14,25.05-8.14-.2-4.14-6.46-18.6-5.82-23.44C449.3,182.65,455.77,170,451.56,156.24Z"></path></g><g id="freepik--device-2--inject-17"><path d="M376,169.5h0a1.78,1.78,0,0,1-.77-.77l-8.45-23.48a.47.47,0,0,1,.27-.61l11.23-6.24a.91.91,0,0,1,.9-.06h0c.33.18.78.41.87.67l8.48,23.82a.46.46,0,0,1-.27.6L377,169.67A1.53,1.53,0,0,1,376,169.5Z" style="fill:#ebebeb"></path><path d="M376,169.5h0a1.78,1.78,0,0,1-.77-.77l-8.45-23.48a.47.47,0,0,1,.27-.61l11.23-6.24a.92.92,0,0,1,.9-.06h0c.33.18.78.41.87.67l8.48,23.82a.46.46,0,0,1-.27.6L377,169.67A1.53,1.53,0,0,1,376,169.5Z" style="opacity:0.2"></path><path d="M376.94,169.69a1.71,1.71,0,0,1-.95-.19h0a1.75,1.75,0,0,1-.77-.78l-8.45-23.48a.55.55,0,0,1,0-.36l1.18.29a.51.51,0,0,0,0,.37l8.48,23.82A.5.5,0,0,0,376.94,169.69Z" style="fill:#ebebeb"></path><path d="M376.94,169.69a1.71,1.71,0,0,1-.95-.19h0a1.75,1.75,0,0,1-.77-.78l-8.45-23.48a.55.55,0,0,1,0-.36l1.18.29a.51.51,0,0,0,0,.37l8.48,23.82A.5.5,0,0,0,376.94,169.69Z" style="opacity:0.4"></path><path d="M368,145.53l8.47,23.82a.49.49,0,0,0,.6.32l11.23-6.24a.46.46,0,0,0,.27-.6L380,139a.49.49,0,0,0-.6-.32l-11.22,6.24A.46.46,0,0,0,368,145.53Z" style="fill:#ebebeb"></path><path d="M368,145.53l8.47,23.82a.49.49,0,0,0,.6.32l11.23-6.24a.46.46,0,0,0,.27-.6L380,139a.49.49,0,0,0-.6-.32l-11.22,6.24A.46.46,0,0,0,368,145.53Z" style="opacity:0.30000000000000004"></path><path d="M369.52,146.9l10-5.58a.41.41,0,0,1,.51.27l6.82,19.2a.4.4,0,0,1-.23.52L376.66,167a.41.41,0,0,1-.51-.27l-6.86-19.33A.4.4,0,0,1,369.52,146.9Z" style="fill:#fff"></path><path d="M373.57,142.55a.33.33,0,0,1,.43.14.31.31,0,0,1-.11.43.32.32,0,0,1-.43-.14A.31.31,0,0,1,373.57,142.55Z" style="fill:#e0e0e0"></path><path d="M373.12,143.86c.55-.29,1.52-.85,2.06-1.15a.2.2,0,0,1,.26.07.19.19,0,0,1-.08.26l-2.06,1.15a.2.2,0,0,1-.26-.08A.17.17,0,0,1,373.12,143.86Z" style="fill:#e0e0e0"></path><path d="M372.6,144.15a.19.19,0,0,1,.24.08.17.17,0,0,1-.06.24.18.18,0,0,1-.24-.07A.18.18,0,0,1,372.6,144.15Z" style="fill:#e0e0e0"></path><path d="M382.35,164.67a.65.65,0,0,1,.8.42.63.63,0,0,1-.36.82.65.65,0,0,1-.81-.42A.63.63,0,0,1,382.35,164.67Z" style="fill:#e0e0e0"></path></g><path d="M417.21,151.54c-6.53,1.59-10.55,1.47-15,10-5,9.7-12,23-13.27,25.12-1.71,2.88-2,6.9-.55,9.55,1.38,2.48,6.14,5.46,11.09-.14,5.9-6.66,15.28-21.81,15.28-21.81S424.11,161.94,417.21,151.54Z" style="fill:#f0f0f0"></path><path d="M392.75,199.67c-4.74-.58-9.88-8.21-13-13.13-5.26-8.3-6.39-9.88-8.85-14-1.87-3.14-3.74-6.47-4.18-7.23a5,5,0,0,1-.54-2.39,12,12,0,0,0-.16-2.47,7.46,7.46,0,0,1-.3-1.92c.06-.62.38-1.19.48-1.8a10.18,10.18,0,0,0-.08-2.27,3.93,3.93,0,0,1,.29-1.47,21.52,21.52,0,0,1,1.89-3.5l3.9,10.82c.3.85,1.6,2.19,2.27,1.07a2.5,2.5,0,0,0,.26-1c.11-1.09,0-2.2.21-3.29a4.19,4.19,0,0,1,.82-1.85c.29-.34,1.13-1.13,1.59-.72a.83.83,0,0,1,.25.49c.11.51-.06,1,0,1.5s.31,1.27.43,1.91a25.75,25.75,0,0,1,.46,3.91c0,1,0,1.94.14,2.9a6.62,6.62,0,0,0,1.16,3.13C381,170.13,395.3,184,395.3,184Z" style="fill:#f0f0f0"></path></g></g></g><g id="freepik--character-2--inject-17"><g id="freepik--character--inject-17"><g id="freepik--bottom--inject-17"><path d="M330.34,150.58,302,156.88l8.44,47.72s-6.65,7.17-10.25,15.23c-2.62,5.84-11.22,29-12.68,32.7s-2.72,6.9-2.72,6.9c-.17,1.17,1.56,4.34,4.41,5.15s7,1.42,7.4.34c0,0,.67-3.61,4.32-8.74s28.19-41.68,29.5-44.11c2-3.64,4.22-6.74,3.9-18.4C334,181.84,331.81,156.48,330.34,150.58Z" style="fill:#f0f0f0"></path><path d="M302.33,215.74a41.5,41.5,0,0,0-2.11,4.09c-.64,1.41-1.65,3.6-2.7,6.6.43,4,1.12,9.58,1.37,10.68h2.18c.47,4.85,2.56,12.05,3.18,14.3l7.67-11.35C310.1,231.44,304.13,219.88,302.33,215.74Z" style="opacity:0.15"></path><path d="M332,157.11s.71,6.09,2.29,21.4,2.76,21.62-1.62,31-11.66,19.78-14,22.92a27.79,27.79,0,0,1-19.75-11.88l6.2-13.83-13.35-44.55Z" style="fill:#e0e0e0"></path><path d="M327.43,161.25s2.27,5-1.88,10.79a23.18,23.18,0,0,1-6.5,6.3s4.4,25.73,5.23,30.82c1,6.05.37,14.51.37,14.51l-8.77-47Z" style="opacity:0.18"></path><path d="M281.27,264.92a4.53,4.53,0,0,0-.73,2.52,7.64,7.64,0,0,0,2.27,4.31,12.24,12.24,0,0,1,2.86,5.26c.56,1.9.51,5.69,2.63,8.54s8.08,6.42,15.86,4.37c3.82-1,4.35-3.2,4-4.26Z" style="fill:#e0e0e0"></path><path d="M297.84,262.25c-.4,2.67-1.47,7.17,3.53,14.07,2.46,3.41,7.64,5.24,6.75,9.34-2.06,3-6.12,3.85-10.83,3.17a12.47,12.47,0,0,1-7-3.51c-1.93-1.81-1.86-3.62-3-7.16a31.05,31.05,0,0,0-2.31-5.89c-1-1.85-4.19-3.59-3.75-7.35.13-1.05,1.61-2.14,2.19-4,.74-2.36,1.22-3.46,2.07-3.31l-.24.61c.76.77,2.78,1.71,3.23,2.55.75,1.39.45,3.31,1,3.32s.71-2.66,1.61-3A6.33,6.33,0,0,1,297.84,262.25Z" style="fill:#e0e0e0"></path><path d="M297.84,262.25c-.4,2.67-1.47,7.17,3.53,14.07,2.46,3.41,7.64,5.24,6.75,9.34-2.06,3-6.12,3.85-10.83,3.17a12.47,12.47,0,0,1-7-3.51c-1.93-1.81-1.86-3.62-3-7.16a31.05,31.05,0,0,0-2.31-5.89c-1-1.85-4.19-3.59-3.75-7.35.13-1.05,1.61-2.14,2.19-4,.74-2.36,1.22-3.46,2.07-3.31l-.24.61c.76.77,2.78,1.71,3.23,2.55.75,1.39.45,3.31,1,3.32s.71-2.66,1.61-3A6.33,6.33,0,0,1,297.84,262.25Z" style="opacity:0.1"></path><path d="M303.05,278.15a12.57,12.57,0,0,1-1.68-1.83c-5-6.9-3.93-11.4-3.53-14.07a6.33,6.33,0,0,0-6.75-1.16c-.9.37-1.1,3-1.61,3,0,5.9,4.12,13.09,5.72,15.13A11.2,11.2,0,0,1,303.05,278.15Z" style="opacity:0.2"></path><path d="M289.81,267.33c2.5-1.69,5.72-1.32,7.67-.64a1.61,1.61,0,0,1,.11,1.07,9.15,9.15,0,0,0-7.16.57C289.72,268.59,289.24,267.67,289.81,267.33Z" style="fill:#e6e6e6"></path><path d="M290.94,271.5a8.38,8.38,0,0,1,7.42-.63,2.62,2.62,0,0,1,.44,1.06,9.32,9.32,0,0,0-7.23.57C290.86,272.76,290.37,271.84,290.94,271.5Z" style="fill:#e6e6e6"></path><path d="M292.66,275.25a8.28,8.28,0,0,1,7.31-1,4.56,4.56,0,0,1,.66,1,9.57,9.57,0,0,0-7.3,1C292.63,276.51,292.11,275.62,292.66,275.25Z" style="fill:#e6e6e6"></path><path d="M295,278.85a9,9,0,0,1,7.61-1.13,3.28,3.28,0,0,1,.89.83,11.16,11.16,0,0,0-7.84,1.28C295,280.12,294.42,279.22,295,278.85Z" style="fill:#e6e6e6"></path><path d="M328,278.38c-.63-6-4.74-41.4-5.67-59.25a337.63,337.63,0,0,0-8.1-41.86,29.13,29.13,0,0,0,8.92-8c6.36-8.35,6.52-15.6,6.52-15.6l-3.45-.39-37.52-.05c-.14,6.19-.74,14.87-.24,22.93,1.05,16.52,15.78,46.3,15.78,46.3-.25,2.26-2.29,11.82-.33,20.33,3.09,13.41,10.19,30.45,11.65,37.71h0l1.24,6.14c4.86.91,9.39.9,13.57-1.88A12.9,12.9,0,0,1,328,278.38Z" style="fill:#f0f0f0"></path><path d="M287.94,151.38a175.92,175.92,0,0,0-1.75,17.72c-.12,5.1,1,12.12,3.09,19.26s8.14,24.45,8.91,27,2.26,18.93,2.26,18.93S315,238.07,325.06,232c0,0-.72-16.42-1.45-20.6s-7.73-34.75-7.73-34.75S332.58,171,332,153.4Z" style="fill:#e0e0e0"></path><path d="M314.52,290.33a9.44,9.44,0,0,0,.13,3c.34.64,2.22,1.38,4.23,2.19,1.61.65,2.76.86,4.61,3.85a17.2,17.2,0,0,0,6.16,6.07c3.38,1.85,7.9,1.79,12,.73,4.71-1.2,5.87-2.35,5.76-4.79Z" style="fill:#e0e0e0"></path><path d="M327.47,279.81a1.74,1.74,0,0,1,1.68,1.17,27,27,0,0,0,7,9.81c3.9,3.59,7,3.38,10.24,6.52a4.77,4.77,0,0,1,1,4.07c-.66,2-4.86,3.57-7.84,3.89-5,.53-7.35-.21-9.77-1.53-5-2.74-5.36-6.8-8.43-8.57-1.77-1-5.82-2.15-6.84-3.89-1-3.71.49-4.82.27-7.51-.25-3.19.27-3.55.72-3.7l.33,1.64a7.18,7.18,0,0,1,3.73,1.05c1.2.79,1.66,3.42,2.13,3.18s0-1.7-.25-2.87a1.83,1.83,0,0,1,.75-1.82A9.91,9.91,0,0,1,327.47,279.81Z" style="fill:#e0e0e0"></path><path d="M327.47,279.81a1.74,1.74,0,0,1,1.68,1.17,27,27,0,0,0,7,9.81c3.9,3.59,7,3.38,10.24,6.52a4.77,4.77,0,0,1,1,4.07c-.66,2-4.86,3.57-7.84,3.89-5,.53-7.35-.21-9.77-1.53-5-2.74-5.36-6.8-8.43-8.57-1.77-1-5.82-2.15-6.84-3.89-1-3.71.49-4.82.27-7.51-.25-3.19.27-3.55.72-3.7l.33,1.64a7.18,7.18,0,0,1,3.73,1.05c1.2.79,1.66,3.42,2.13,3.18s0-1.7-.25-2.87a1.83,1.83,0,0,1,.75-1.82A9.91,9.91,0,0,1,327.47,279.81Z" style="opacity:0.1"></path><path d="M331.79,297.22c3.7-3.55,7.1-3.58,8.92-3.4a17.8,17.8,0,0,1-4.54-3,27,27,0,0,1-7-9.81,1.74,1.74,0,0,0-1.68-1.17,9.91,9.91,0,0,0-5.26,1.44,1.83,1.83,0,0,0-.75,1.82c.2,1.17.6,2.68.25,2.87C323.19,290,326.86,293.62,331.79,297.22Z" style="opacity:0.2"></path><path d="M322.5,288.18c2.57-3.55,8.05-3.52,8.89-2.93a2.48,2.48,0,0,1,.61.88,9.09,9.09,0,0,0-8.57,2.79C322.85,289.4,322.08,288.7,322.5,288.18Z" style="fill:#e6e6e6"></path><path d="M324.9,291c2.57-3.55,7.81-3.53,8.64-2.94a7.61,7.61,0,0,1,.76.88,8.92,8.92,0,0,0-8.47,2.79C325.25,292.22,324.48,291.52,324.9,291Z" style="fill:#e6e6e6"></path><path d="M327.62,294.05c2.57-3.55,7.9-3.68,8.74-3.09.51.44,1,.84,1,.84a9.68,9.68,0,0,0-8.81,3C328,295.26,327.21,294.56,327.62,294.05Z" style="fill:#e6e6e6"></path><path d="M331.26,296.85c2.57-3.55,8.24-3.8,9.08-3.21a13.81,13.81,0,0,1,1.57.76c-2.07-.56-7.27.3-9.72,3.18C331.61,298.06,330.84,297.36,331.26,296.85Z" style="fill:#e6e6e6"></path></g><g id="freepik--top--inject-17"><path d="M325.32,98.53c11.07,2.07,12.14,6,13.72,14.32,1.65,8.73,3,25.11,3,25.11s5.27,20,6.57,22.34c2.2,3.9,5.42,4,8.79,8.85,2.37,3.43,5.3,5.67,2.14,6-1.58.17-3.47-2-4.65-2.87-.52-.36-1.65-1.19-2.32-.79s-.47,1.62-.34,2.23a20.23,20.23,0,0,0,2.74,5.95c1.45,2.41,4.39,5.38,4,8.42-.44,3.39-3.18-.24-4.65-.62s-2.75-.16-4.09-1.13c-.53-.38-.93-1.18-1.53-1.44a5.31,5.31,0,0,0-1.26-.16c-4.65-.62-6.58-6.3-7.64-10.12-.66-2.34-1.07-4.76-1.77-7.09a49.44,49.44,0,0,0-2.74-8c-5.84-11.74-7.15-15.32-8.33-18.76S325.32,98.53,325.32,98.53Z" style="fill:#f0f0f0"></path><path d="M331.91,116c-.61-5.43-.85-13.84-6.59-17.42,0,0-5.78-1.21-8-1.35a82.4,82.4,0,0,0-11.69,0c-3.78.26-11.74,1.69-11.74,1.69l-6.94,33.56s-1.46,17.1-.19,29.7c9.68,6.49,35.29,6.22,45.86.22C332,151.38,332.67,122.78,331.91,116Z" style="fill:#fafafa"></path><g id="freepik--Head--inject-17"><path d="M304.63,62.46a4.86,4.86,0,0,0-5.13,2c-2,2.55-.95,8,0,13.59a42.52,42.52,0,0,0,2.91,10.36,4.27,4.27,0,0,0,2.3,2.15L305,84l.12-4.6s3.25-3.79,3.83-7c.74-4.2,0-6,0-6Z" style="fill:#e0e0e0"></path><path d="M308.38,70.23a12.3,12.3,0,1,0,13.18-11.36A12.31,12.31,0,0,0,308.38,70.23Z" style="fill:#e0e0e0"></path><path d="M299.25,85.1c2.32,1.75,4.68-.57,4.68-.57l-.85,13.62s.44,2.12,5.25,4.74c5.94,3.24,14.6,2.21,10.41-4.66l.38-3.22a26.11,26.11,0,0,0,4.13.1c3.05-.24,5.35-2.26,6.5-5.46,1.86-5.13,2.12-13,.89-23.38-3.18-2.88-14.23-4.14-21.67-.2-.12,6-2,8.57-2.15,10.75-.52.83-2.45,1.4-2.84,1.7a4.85,4.85,0,0,0-1.33-2.83c-.86-1-3.78-2.59-5.53.48S297.25,83.59,299.25,85.1Z" style="fill:#f0f0f0"></path><path d="M319.12,95c-3.56-.5-8.67-2.43-10.49-4.42a12.88,12.88,0,0,1-3-5.58,10.38,10.38,0,0,0,2.75,7.67c2.09,2.25,6.87,3.66,10.55,4.32Z" style="fill:#e0e0e0"></path><path d="M333.57,58.67a.56.56,0,0,0-.41-.37.77.77,0,0,0-.43.15,19.3,19.3,0,0,1-2.82,1.6,9.82,9.82,0,0,0,.33-3.66c-.08-.75-.16-2.49-1.06-2.75-.54-.15-1.06.27-1.49.62-4,3.17-8.65,1.2-13.1,1-3.72-.16-8.32,1-10.28,4.48-.9,1.59-1.16,3.33.27,4.59a10.6,10.6,0,0,0,4.39,2c7.3,1.86,17.07,5.17,23.08-1.31a6.48,6.48,0,0,0,1.75-3.3,5.38,5.38,0,0,0-.21-3Z" style="fill:#e0e0e0"></path><path d="M317.44,77.58A1.45,1.45,0,0,0,316,76.11a1.47,1.47,0,1,0,1.43,1.47ZM326.76,76a1.48,1.48,0,1,0,1.44,1.48A1.45,1.45,0,0,0,326.76,76Zm-12.13-3.56a1.73,1.73,0,0,0-1.11,2.13l3.15-1A1.61,1.61,0,0,0,314.63,72.47Zm13.5.06a1.6,1.6,0,0,0-2.09,1l3.12,1.17A1.76,1.76,0,0,0,328.13,72.53ZM321.8,84.11l4.34-.73L321.62,76Zm-3.4,4.35A2,2,0,0,0,321,87l-4-1.21A2.18,2.18,0,0,0,318.4,88.46Z" style="fill:#e0e0e0"></path><path d="M317.44,77.58A1.45,1.45,0,0,0,316,76.11a1.47,1.47,0,1,0,1.43,1.47ZM326.76,76a1.48,1.48,0,1,0,1.44,1.48A1.45,1.45,0,0,0,326.76,76Zm-12.13-3.56a1.73,1.73,0,0,0-1.11,2.13l3.15-1A1.61,1.61,0,0,0,314.63,72.47Zm13.5.06a1.6,1.6,0,0,0-2.09,1l3.12,1.17A1.76,1.76,0,0,0,328.13,72.53ZM318.4,88.46A2,2,0,0,0,321,87l-4-1.21A2.18,2.18,0,0,0,318.4,88.46Z" style="opacity:0.1"></path></g><path d="M270.41,139.26c-1,4.45,0,6.1,4.34,16.16,2.15,4.58,7.18,13.78,9.13,17,2.63,4.41,3.35,5.69,5.73,7.56,2.68.63,8.81-3.78,8.94-7.64a8.38,8.38,0,0,1-2.49-2.37,17.58,17.58,0,0,0,5.22,1.46c2,0,2.48-1.08,2.48-1.71s-.94-.8-2.69-1.73c-1.5-.81-2.53-1.88-4.94-3.18-1.66-.88-2.28-.8-3.41-2-1.78-1.89-3.2-5.61-4.93-10.63-1.86-5.42-3-10.11-3-10.11l9.11-22.63s3.33-12.39-.07-20.6c-6.94.64-10.25,2.89-13.27,10.15C278.41,114.25,270.94,135.71,270.41,139.26Z" style="fill:#f0f0f0"></path></g></g></g><g id="freepik--Tree--inject-17"><g id="freepik--tree--inject-17"><path d="M112.73,101.69c-.4-1.52-.21-3.16-1-4.59a13.64,13.64,0,0,0-3.08-3.4,8.46,8.46,0,0,0-4.07-2.12c-1.51-.25-2.73.31-4.11.57-.67-6.2-13.14-8.33-14.56-1.71-2.76-1-5.73.3-6.25,3.41-2.24-1.3-3.57-2.65-6.4-2.4a5.35,5.35,0,0,0-5,4.34c-2.72-1.7-5.21-3-8.46-3.29-2.83-.23-5.19,1.41-7.29,3.21a14.44,14.44,0,0,0-4.16,5.56c-.29.72-1.67,5.86-.49,6.25A9.83,9.83,0,0,0,37,122.82c-4-.3-8.34,1.1-10.72,4.35s-2.09,8.45,1.17,10.81c1.25.91,3.08,2,2.56,3.42-.26.71-1,1.09-1.55,1.6-2.35,2.24-.55,6.13,1.33,8.77-3.52-.62-7.17-1.24-10.64-.36s-6.71,3.7-6.9,7.27a12.88,12.88,0,0,0,.33,3c.58,3,1.19,6.14,2.78,8.79,1.16,1.93,3.2,3.68,5.41,3.28-.31,2.9,2,5.55,4.75,6.6,6.82,2.61,13.07-2.61,20.18-.83,6.28,1.57,12.19,7.13,18.3,5,3.8-1.34,7.72-5.5,11-3.15,1.5,1.07,1.92,3.11,3.11,4.52,4.83,5.7,13.41-3,18,1.09,2,1.77,1.75,4.94.23,7-3,4.05-7,1.53-10.86.59a11.37,11.37,0,0,0-13.09,7.61c1.87-6.47-19.29-11-19.74.32a26.45,26.45,0,0,0-10.54,1c-2.24.67-4.79,2.32-4.41,4.62a17,17,0,0,0-11,5.37c-2.37,2.57-3.86,6.63-1.87,9.5,1.07,1.56,3.06,2.62,3.31,4.49A8.78,8.78,0,0,0,24.11,237c.19.69.43,1.5,0,2.06a2.15,2.15,0,0,1-1.65.56,13.66,13.66,0,0,0-6.39,1.6,6,6,0,0,0-3,5.5c.26,2.2,2.66,4.07,4.75,3.31a12.72,12.72,0,0,0-3.05,4.36c-.57,1.69-.28,3.82,1.17,4.86s3.83.6,5.61-.22a24,24,0,0,0,8.16-6.17,3.76,3.76,0,0,1,2-1.51c1.34-.23,2.43,1.16,2.76,2.49s.27,2.78,1,4c1.3,2.17,4.57,2.22,6.81,1s3.88-3.25,5.94-4.73a1.65,1.65,0,0,1,1.57-.4c.53.25.65.93.83,1.48.71,2.22,3.25,3.46,5.58,3.35A13.08,13.08,0,0,0,62.51,256a3.34,3.34,0,0,1,2.59-.83c1.06.31,1.47,1.55,2.11,2.44,1.35,1.89,4,2.4,6.28,1.81a16.94,16.94,0,0,0,6-3.47c.53-1.31,1-2.62,1.57-3.93.38,1.71,3.32,3.23,4.89,3.71a14.48,14.48,0,0,0,8.45-.23c3.35-1.36,6-5.33,6.94-8.73,2.12.72,3.26,2.87,5.83.71,2.35-2,1.28-4,1.62-6.51,2.34.2,4.43,1.94,6.79.61s2.07-4.47,1.36-6.73c4.07,2.82,11,1.68,12.22-3.66,2.25.88,3.63,3,6.68,2.92a8.75,8.75,0,0,0,5.34-2c.87-.88.92-2.28,2.1-2.87.78,1.82,3.75,2.31,5.45,1.79,2.86-.87,3.35-3.25,4.17-5.43-.23.62,2.43,3.25,3.06,3.61,1.7,1,4.7.88,6.54.49,2.52-.54,4.16-2.55,6.26-3.76.92,2.18,2.47,5,5.1,5.23s5.49-2.21,8.17-1.07c2.48,1,2.84,3.54,6.12,3.12,4.5-.59,6.37-3.15,7.54-7.1,2.65,1,6.2,2.6,9.11,1.25,3.68-1.71,3.45-5.09,3.49-8.45,2.1.73,7.21.74,8-1.78.94-3-2-5.93-3.75-7.78,1.1-1,2.66-1.39,3.14-3a5.75,5.75,0,0,0-.92-4.19c-1.67-2.57-4.38-2.64-6.66-3.81,4.19-.69,4-4.92,1.37-7.22,2.08-.12,4.69.37,6.37-1.2,1.39-1.29.94-2.69,1-4.46,1.91.9,4.82,1.28,6.8.27s2.06-2.62,2.89-4.3c3.09,3.81,11,5.14,12-.66,3.37,7.5,11.9,8,17.51,2.61.47,3.28,2.73,5.31,6.11,5.74,5.18.67,10.62-.74,11.09-6.79,5.05,3.88,13.92,2.67,11.26-5.63,4.48,1.22,8.68-.27,8.75-5.42,0-3.33-1.38-5.21-4.84-5.32.11-.9,1.41-1.4,1.94-2.33a4.84,4.84,0,0,0-.57-5.67c-1.21-1.25-5.11-1-5.67-2-.28-.47.66-2.34.6-3a5.66,5.66,0,0,0-2.17-3.59c-1.91-1.48-4.64-.8-7-.87.67-3.54.74-9.17-4.64-8.74,2.84.08,5.38,2.06,8.42,2a7,7,0,0,0,6.24-3.93c1.38,2.43,3.25,4.07,6.17,4.3,4.1.31,6.53-2.58,7.32-5.9.29,2.28,3.48,3.39,5.48,3.16,2.68-.31,5.41-3.9,5.25-6.6,2.24.87,5,2.1,7.35.85,3.27-1.73,3.33-6.26,2.71-9.38,2.78,1.35,3.81-3.67,2.95-5.51-2.06-4.38-8.13-4.81-12.23-4.83-.63-2.63-.85-4.54-3.69-5.9a9.16,9.16,0,0,0-4.73-.79c-1.15.17-2.18,1.29-3.24,1.44-1.48.2-1.16-.35-2.73-1.38a9.92,9.92,0,0,0-6.51-1.06c-1,.22-5.95,2.86-6,3.82,0-3.67-.94-10-5.87-9.27,8.07-3.14,6.38-12.28-2.49-11.82-1.43-7.91-12.45-10.3-17.95-4.38-2.62-2.52-3.54-5-7.65-5.19s-9.67,1.5-12.46,3.69c-.48-5.23-1.69-8.72-7.43-8.63-.24-4.72.34-10.32-3.8-13.65-4.33-3.49-11.35-2.94-15.43,0-1.7-2.81-3.24-6.19-5.91-8.24A13.33,13.33,0,0,0,196.25,50a16.2,16.2,0,0,0-4.5.51c-.6.2-2.7,2-3.14,1.88-1.24-.27-1.35-2-1.93-3.06a12.5,12.5,0,0,0-4.83-5.2c-4.24-2.68-8.73-3.17-12.93-.08-1.86-5.67-7.43-15-14.73-10.49-.84.51-2.65,3.36-3.79,3.24-.58-.06-1.59-1.49-2.09-1.86A11.36,11.36,0,0,0,144.38,33c-2.37-.62-5.92-.85-8.1.55-1.22.79-2.06,3.28-3.31,3.64s-3.89-1.44-5.38-1.79c-3.35-.8-6.84-.85-9.69,1.32-1.11.85-2.59,4.32-3.74,4.62-.59.16-1.78-.71-2.35-.89a27.78,27.78,0,0,0-6.13-1.1c-2.73-.22-5.74-.19-8,1.56-1.34,1-2.47,4.26-3.7,4.85-.91.45-4.41-.75-5.58-.71-3,.09-4.58,1.32-6.44,3.64-1.5,1.88-2.55,4.37-4.77,5.55-2.45,1.32-5.44.42-8.07.45-2.85,0-6,.43-6.61,3.77-.46,2.38,1,3.19,2.28,4.49-2.78,2,1.26,4.8,2.91,5.53,3.46,1.54,6.8,2.09,10.15.46,2.11,5.47,13.1,4.86,16.09.74-.16,7.69,9.21,7.94,14.52,5.52-3.86,6.16,6,9.67,10.48,8.59-1.86.89-1.4,4-.48,5.77a9.48,9.48,0,0,0,3.46,3.65c1.28.83,3.11,1.4,4.14,2.51a6.39,6.39,0,0,0-3.57,3.59,6.94,6.94,0,0,0-.76,4.27c-.1-.75-2.93-2.7-3.66-2.9C116.54,100.3,113.91,100.57,112.73,101.69Z" style="fill:#BA68C8"></path><path d="M112.73,101.69c-.4-1.52-.21-3.16-1-4.59a13.64,13.64,0,0,0-3.08-3.4,8.46,8.46,0,0,0-4.07-2.12c-1.51-.25-2.73.31-4.11.57-.67-6.2-13.14-8.33-14.56-1.71-2.76-1-5.73.3-6.25,3.41-2.24-1.3-3.57-2.65-6.4-2.4a5.35,5.35,0,0,0-5,4.34c-2.72-1.7-5.21-3-8.46-3.29-2.83-.23-5.19,1.41-7.29,3.21a14.44,14.44,0,0,0-4.16,5.56c-.29.72-1.67,5.86-.49,6.25A9.83,9.83,0,0,0,37,122.82c-4-.3-8.34,1.1-10.72,4.35s-2.09,8.45,1.17,10.81c1.25.91,3.08,2,2.56,3.42-.26.71-1,1.09-1.55,1.6-2.35,2.24-.55,6.13,1.33,8.77-3.52-.62-7.17-1.24-10.64-.36s-6.71,3.7-6.9,7.27a12.88,12.88,0,0,0,.33,3c.58,3,1.19,6.14,2.78,8.79,1.16,1.93,3.2,3.68,5.41,3.28-.31,2.9,2,5.55,4.75,6.6,6.82,2.61,13.07-2.61,20.18-.83,6.28,1.57,12.19,7.13,18.3,5,3.8-1.34,7.72-5.5,11-3.15,1.5,1.07,1.92,3.11,3.11,4.52,4.83,5.7,13.41-3,18,1.09,2,1.77,1.75,4.94.23,7-3,4.05-7,1.53-10.86.59a11.37,11.37,0,0,0-13.09,7.61c1.87-6.47-19.29-11-19.74.32a26.45,26.45,0,0,0-10.54,1c-2.24.67-4.79,2.32-4.41,4.62a17,17,0,0,0-11,5.37c-2.37,2.57-3.86,6.63-1.87,9.5,1.07,1.56,3.06,2.62,3.31,4.49A8.78,8.78,0,0,0,24.11,237c.19.69.43,1.5,0,2.06a2.15,2.15,0,0,1-1.65.56,13.66,13.66,0,0,0-6.39,1.6,6,6,0,0,0-3,5.5c.26,2.2,2.66,4.07,4.75,3.31a12.72,12.72,0,0,0-3.05,4.36c-.57,1.69-.28,3.82,1.17,4.86s3.83.6,5.61-.22a24,24,0,0,0,8.16-6.17,3.76,3.76,0,0,1,2-1.51c1.34-.23,2.43,1.16,2.76,2.49s.27,2.78,1,4c1.3,2.17,4.57,2.22,6.81,1s3.88-3.25,5.94-4.73a1.65,1.65,0,0,1,1.57-.4c.53.25.65.93.83,1.48.71,2.22,3.25,3.46,5.58,3.35A13.08,13.08,0,0,0,62.51,256a3.34,3.34,0,0,1,2.59-.83c1.06.31,1.47,1.55,2.11,2.44,1.35,1.89,4,2.4,6.28,1.81a16.94,16.94,0,0,0,6-3.47c.53-1.31,1-2.62,1.57-3.93.38,1.71,3.32,3.23,4.89,3.71a14.48,14.48,0,0,0,8.45-.23c3.35-1.36,6-5.33,6.94-8.73,2.12.72,3.26,2.87,5.83.71,2.35-2,1.28-4,1.62-6.51,2.34.2,4.43,1.94,6.79.61s2.07-4.47,1.36-6.73c4.07,2.82,11,1.68,12.22-3.66,2.25.88,3.63,3,6.68,2.92a8.75,8.75,0,0,0,5.34-2c.87-.88.92-2.28,2.1-2.87.78,1.82,3.75,2.31,5.45,1.79,2.86-.87,3.35-3.25,4.17-5.43-.23.62,2.43,3.25,3.06,3.61,1.7,1,4.7.88,6.54.49,2.52-.54,4.16-2.55,6.26-3.76.92,2.18,2.47,5,5.1,5.23s5.49-2.21,8.17-1.07c2.48,1,2.84,3.54,6.12,3.12,4.5-.59,6.37-3.15,7.54-7.1,2.65,1,6.2,2.6,9.11,1.25,3.68-1.71,3.45-5.09,3.49-8.45,2.1.73,7.21.74,8-1.78.94-3-2-5.93-3.75-7.78,1.1-1,2.66-1.39,3.14-3a5.75,5.75,0,0,0-.92-4.19c-1.67-2.57-4.38-2.64-6.66-3.81,4.19-.69,4-4.92,1.37-7.22,2.08-.12,4.69.37,6.37-1.2,1.39-1.29.94-2.69,1-4.46,1.91.9,4.82,1.28,6.8.27s2.06-2.62,2.89-4.3c3.09,3.81,11,5.14,12-.66,3.37,7.5,11.9,8,17.51,2.61.47,3.28,2.73,5.31,6.11,5.74,5.18.67,10.62-.74,11.09-6.79,5.05,3.88,13.92,2.67,11.26-5.63,4.48,1.22,8.68-.27,8.75-5.42,0-3.33-1.38-5.21-4.84-5.32.11-.9,1.41-1.4,1.94-2.33a4.84,4.84,0,0,0-.57-5.67c-1.21-1.25-5.11-1-5.67-2-.28-.47.66-2.34.6-3a5.66,5.66,0,0,0-2.17-3.59c-1.91-1.48-4.64-.8-7-.87.67-3.54.74-9.17-4.64-8.74,2.84.08,5.38,2.06,8.42,2a7,7,0,0,0,6.24-3.93c1.38,2.43,3.25,4.07,6.17,4.3,4.1.31,6.53-2.58,7.32-5.9.29,2.28,3.48,3.39,5.48,3.16,2.68-.31,5.41-3.9,5.25-6.6,2.24.87,5,2.1,7.35.85,3.27-1.73,3.33-6.26,2.71-9.38,2.78,1.35,3.81-3.67,2.95-5.51-2.06-4.38-8.13-4.81-12.23-4.83-.63-2.63-.85-4.54-3.69-5.9a9.16,9.16,0,0,0-4.73-.79c-1.15.17-2.18,1.29-3.24,1.44-1.48.2-1.16-.35-2.73-1.38a9.92,9.92,0,0,0-6.51-1.06c-1,.22-5.95,2.86-6,3.82,0-3.67-.94-10-5.87-9.27,8.07-3.14,6.38-12.28-2.49-11.82-1.43-7.91-12.45-10.3-17.95-4.38-2.62-2.52-3.54-5-7.65-5.19s-9.67,1.5-12.46,3.69c-.48-5.23-1.69-8.72-7.43-8.63-.24-4.72.34-10.32-3.8-13.65-4.33-3.49-11.35-2.94-15.43,0-1.7-2.81-3.24-6.19-5.91-8.24A13.33,13.33,0,0,0,196.25,50a16.2,16.2,0,0,0-4.5.51c-.6.2-2.7,2-3.14,1.88-1.24-.27-1.35-2-1.93-3.06a12.5,12.5,0,0,0-4.83-5.2c-4.24-2.68-8.73-3.17-12.93-.08-1.86-5.67-7.43-15-14.73-10.49-.84.51-2.65,3.36-3.79,3.24-.58-.06-1.59-1.49-2.09-1.86A11.36,11.36,0,0,0,144.38,33c-2.37-.62-5.92-.85-8.1.55-1.22.79-2.06,3.28-3.31,3.64s-3.89-1.44-5.38-1.79c-3.35-.8-6.84-.85-9.69,1.32-1.11.85-2.59,4.32-3.74,4.62-.59.16-1.78-.71-2.35-.89a27.78,27.78,0,0,0-6.13-1.1c-2.73-.22-5.74-.19-8,1.56-1.34,1-2.47,4.26-3.7,4.85-.91.45-4.41-.75-5.58-.71-3,.09-4.58,1.32-6.44,3.64-1.5,1.88-2.55,4.37-4.77,5.55-2.45,1.32-5.44.42-8.07.45-2.85,0-6,.43-6.61,3.77-.46,2.38,1,3.19,2.28,4.49-2.78,2,1.26,4.8,2.91,5.53,3.46,1.54,6.8,2.09,10.15.46,2.11,5.47,13.1,4.86,16.09.74-.16,7.69,9.21,7.94,14.52,5.52-3.86,6.16,6,9.67,10.48,8.59-1.86.89-1.4,4-.48,5.77a9.48,9.48,0,0,0,3.46,3.65c1.28.83,3.11,1.4,4.14,2.51a6.39,6.39,0,0,0-3.57,3.59,6.94,6.94,0,0,0-.76,4.27c-.1-.75-2.93-2.7-3.66-2.9C116.54,100.3,113.91,100.57,112.73,101.69Z" style="fill:#fff;opacity:0.5"></path><path d="M27.47,138c1.25.91,3.08,2,2.56,3.42a2,2,0,0,1-.47.68,9.92,9.92,0,0,0,2.83-.25c.88-.22,1.42-.82,2.31-.58,1.21.33,2.37,2.45,3.24,3.22,3.93,3.49,10.08,3.11,12-1.95a17.46,17.46,0,0,0,8.87,1.87,11.07,11.07,0,0,0,5.86-2.14c.53-.42,1.55-2.23,2.18-2.4s2,.83,2.72,1.19c2.26,1.13,4.11,1.6,6.6.87,1.73-.51,3.93-1.4,3.47-3.5-2.25,2.13-3.84,2.27-6.64.5-2.29-1.45-3.14-3.31-3.8-5.81-1.42,1-2.79,2.68-4.8,2.22-1.67-.38-1.68-1.84-2.48-2.91-1.1,2.28-1.27,3.79-3.77,5.09a8.35,8.35,0,0,1-5.47.73c-1.87-.32-4.36-1.71-4.3-3.89-3.1,5-14.79-.22-11.35-4.71-2.37,2.38-6-.3-6.86-2.85a3.94,3.94,0,0,1-.13-2.66,10,10,0,0,0-3.76,3C23.93,130.43,24.21,135.62,27.47,138ZM64.79,63c-2.78,2,1.27,4.8,2.91,5.53,3.46,1.54,6.8,2.09,10.15.46,2.11,5.47,13.1,4.86,16.09.74-.16,7.69,9.21,7.94,14.52,5.52-3.86,6.16,6,9.67,10.48,8.59-1.86.89-1.4,4-.48,5.77a9.48,9.48,0,0,0,3.46,3.65c1.28.83,3.11,1.4,4.14,2.51,5.57-1.06,7.88,1.22,10.06,5.21a2.16,2.16,0,0,0,1.7,1.35,12.07,12.07,0,0,0,3.12,0c2.42,0,6.57.7,8.17,2.8-1.29-3.33-3.11-4.64-6.25-6.21-2.83-1.41-3-3.51-.65-5.5-2.17-.68-4.92-1.55-6.57-3.18-2.13-2.1-1.87-4.78-2-7.5-2.76.26-5.85.24-7.6-2.36s0-4.81.36-7.36c-3.86.75-9.17,1.3-12.65-1.2-2.27-1.63-1.37-3-1.26-5.23-5,1.3-18,2-16.92-6.68a6.87,6.87,0,0,1-6.47,4.91c-1.36,0-3.66-.76-3.27-2.49-2,1.35-8.69,2.39-9.34-1.11-.35-1.9,1.59-2.88,3.06-3.31-1.17-1.11-2.13-2.11-2.3-3.65,0,0,0,0,0,0-2.45,1.32-5.44.42-8.07.45-2.85,0-6,.43-6.61,3.77C62.05,60.87,63.54,61.68,64.79,63Zm-44,110.79c-.31,2.9,2,5.55,4.75,6.6,6.82,2.61,13.07-2.61,20.18-.83,6.28,1.57,12.19,7.13,18.3,5,3.8-1.34,7.72-5.5,11-3.15,1.5,1.07,1.92,3.11,3.11,4.52,4.83,5.7,13.41-3,18,1.09a4.66,4.66,0,0,1,1.34,4.35c2.77-1.3,4.21-4.5,7.4-5-2.5.11-5.92-.67-7.47-3.16-.62-1-1-2.31,0-3.17-1.72.17-3.31,1.33-4.92,1.91-1.28.45-4.62,1.15-6,.5-1.78-.88-.07-2.64.86-3.74-1.59-.21-3.17.54-4.8.46a9.67,9.67,0,0,1-5.27-1.64c-1.34-1-2.75-2.91-2.8-4.66-.9.28-7.86,5.23-7.9,2.1-2.47,2.64-5.33,4.33-9.08,2.83a6.67,6.67,0,0,1-3.74-5.1c-2.6,1.17-10.54,3.37-9.92-2.18-3.83,2.05-8.66,6.26-13.43,3.46-2.56-1.5-1.32-4.38-.62-6.41-2.3.42-6.87,2-8.06-1.08-.62-1.63.64-3,1.41-4.21-3.15,0-6.67-.14-7.68-3.79-.5-1.82.29-5.12,2.05-6.45-2.81,1.23-5.16,3.7-5.32,6.72a12.88,12.88,0,0,0,.33,3c.58,3,1.19,6.14,2.78,8.79C16.54,172.42,18.58,174.17,20.79,173.77ZM323,119.47a1.3,1.3,0,0,1-.21.35c-.88,1.07-4.14,1-5.18.27-.14,2,.88,4-.92,5.64-2.58,2.37-6.69.5-9.24-.8-.35,1.82-.69,4.4-2.29,5.6-2.82,2.1-6-1.07-8.45-2.07,0,1.92-.65,3.54-2.72,4.07-3.95,1-5.33-2-8-3.75-1.54,1.22-1.45,2.89-3.92,3.26s-4.51-1.18-6.16-2.83c-1-1-1.93-3-3.14-3.62-1,1.71-2.46,3.79-4.34,4.57-4.91,2.06-8.27-2.39-11.94-4.34a3.62,3.62,0,0,1-3.86,2.62c-3.24-.27-3.57-4.11-6-4.8A8.68,8.68,0,0,1,242,127.1c-4.06,1.28-6.26-1.15-9.49-3.12-1.08,6.91,6.47,10.87,12.3,8.24-.42,2.81-.49,6.31,2.86,7.23s8.83-.06,10.92-2.95c.1,5.92,10.05,6,12.61,1.44a25.26,25.26,0,0,0,2.9,2.49,14.78,14.78,0,0,0,5.27,1.28,7,7,0,0,0,6.24-3.93c1.38,2.43,3.25,4.07,6.17,4.3,4.1.31,6.53-2.58,7.32-5.9.29,2.28,3.48,3.39,5.48,3.16,2.68-.31,5.41-3.9,5.25-6.6,2.24.87,5,2.1,7.35.85,3.27-1.73,3.33-6.26,2.71-9.38C322.31,125.4,323.4,121.64,323,119.47ZM281,172.06c-.13,3.06-1.1,6.18-4.91,5.18-2.06-.54-3.19-2.51-4.82-3.44.1,4.34-3.12,9.14-7.91,6.82-2.23-1.08-2.63-3.51-4.06-5.13-3.53,2.13-6.22,2.72-10.2.72-2.32-1.16-4.72-2.35-4.66-5.26-3.1,3.09-6.73,6.12-11.61,4.43-3.44-1.18-3.3-3.65-3.41-6.71-3.8,2.05-8.59,3.35-12.46.65-2.13-1.49-2.41-3.26-3.26-5.5-4.56,2.26-8.53,1.9-11.56-2.54-1.61-2.37-2.19-9.65,2.07-9.87-4.4,0-8.83-1.55-5.63-6.8A14.21,14.21,0,0,1,209,138.33c-6.38-3.34,1.13-9.43,4.27-11.24l-.67-.88c-4.5,2.83-9.59,5.26-13.71,8.63-2,1.64-3.39,3.91-5.41,5.52-3.8,3-7.54,5.75-10.94,9.31-3.77,3.92-7.1,8.9-10.43,13.23-2.12,2.76-4.88,5.35-6.57,8.4-2.2,4-4.57,7.61-6.71,11.62A30.52,30.52,0,0,0,156.3,190a26.26,26.26,0,0,0-1,4.93,47.36,47.36,0,0,1,5.67-5.66c2.7-2.33.7-4.07,2.39-6.59,1.59-2.36,5.14-2.56,7.63-1.87,0-4.64,2.79-11.32,7.91-11.72,3.14-.24,5.3.35,6.5,2.82,1.61-2.5,6.5-2.51,8.43-.58s1.9,4.63,2.22,7.07c1.95-2.25,3.93-4,6.9-3.57,3.66.49,4.69,3.14,6.1,5.93,4.31-4.82,6.95.46,7.51,4.82a6,6,0,0,0,.26,1.15c0-.4,0-.82,0-1.26,1.91.9,4.82,1.28,6.8.27s2.06-2.62,2.89-4.3c3.09,3.81,11,5.14,12-.66,3.37,7.5,11.9,8,17.51,2.61.47,3.28,2.73,5.31,6.11,5.74,5.18.67,10.62-.74,11.09-6.79,5.05,3.88,13.92,2.67,11.26-5.63,4.06,1.11,7.87,0,8.61-4a10.07,10.07,0,0,1-3.41.68C286.72,173.45,283.79,171.89,281,172.06Zm-70.32,42.88c-2.7-.27-5.71-.88-7.78-2.75,3,6.68-6.75,11.22-10.6,5.81.61,4.56-6.32,6.26-9.58,4.76-2.51-1.16-3.2-3.31-3.25-5.78-3.12,1.82-8,1.12-9.15-2.54-1-3.27,2-5.4,4.19-7.06-2.06-.27-3.55-1.57-3.39-3.69.21-2.62,2.9-4.7,3-6.93-3.09,1.81-5.81,5.6-10,5.48,1.89,4.46-14,10.77-11.87.39.26-1.22,1.13-2.62,1-3.82-4.17,1.59-10.24,1.57-11.6-3.67-.3,4-3.85,9.63-8.29,9.32a4.87,4.87,0,0,1-4.42-3.1c-.25,1.67-2.86,4.18-4.49,4.68-1.86.57-4.12-.21-5.9-.74,1.11,3.86,2.37,8.16-.8,11.43-2.58,2.65-4.88,1.48-8.08,1.75,1,3.45.77,10.06-3.55,11-3.06.69-6.08-.65-9-1.45,1.67,3.19-.6,9.3-4.92,7.18,1.67,1.91,3,2.32,2,5.29-1.54,4.53-8.1,3.73-10.8.83-.76,1-.7,2.47-1.61,3.59-1.95,2.4-4.91,3.12-7.85,3.11-3.14,0-5.74-1-7.18-3.92C63.25,248,59,249.62,53.69,248.3c-2.48-.61-5-2.5-5.77-4.86-1.41,5.45-13.42,7.45-13.26.36-1.77,2.44-5.34,5.1-8.53,5.14-2.81,0-2-2.32-.21-3.45-2.73,1.18-6.33,1.77-8.51-1a4.24,4.24,0,0,1-.66-3.69c-.23.12-.46.24-.69.38a6,6,0,0,0-3,5.5c.26,2.2,2.66,4.07,4.75,3.31a12.72,12.72,0,0,0-3.05,4.36c-.57,1.69-.28,3.82,1.17,4.86s3.83.6,5.61-.22a24,24,0,0,0,8.16-6.17,3.76,3.76,0,0,1,2-1.51c1.34-.23,2.43,1.16,2.76,2.49s.27,2.78,1,4c1.3,2.17,4.57,2.22,6.81,1s3.88-3.25,5.94-4.73a1.65,1.65,0,0,1,1.57-.4c.53.25.65.93.83,1.48.71,2.22,3.25,3.46,5.58,3.35A13.08,13.08,0,0,0,62.51,256a3.34,3.34,0,0,1,2.59-.83c1.06.31,1.47,1.55,2.11,2.44,1.35,1.89,4,2.4,6.28,1.81a16.94,16.94,0,0,0,6-3.47c.53-1.31,1-2.62,1.57-3.93.38,1.71,3.32,3.23,4.89,3.71a14.48,14.48,0,0,0,8.45-.23c3.35-1.36,6-5.33,6.94-8.73,2.12.72,3.26,2.87,5.83.71,2.35-2,1.28-4,1.62-6.51,2.34.2,4.43,1.94,6.79.61s2.07-4.47,1.36-6.73c4.07,2.82,11,1.68,12.22-3.66,2.25.88,3.63,3,6.68,2.92a8.75,8.75,0,0,0,5.34-2c.87-.88.92-2.28,2.1-2.87.78,1.82,3.75,2.31,5.45,1.79,2.86-.87,3.35-3.25,4.17-5.43-.23.62,2.43,3.25,3.06,3.61,1.7,1,4.7.88,6.54.49,2.52-.54,4.16-2.55,6.26-3.76.92,2.18,2.47,5,5.1,5.23s5.49-2.21,8.17-1.07c2.48,1,2.84,3.54,6.12,3.12,4.5-.59,6.37-3.15,7.54-7.1,2.65,1,6.2,2.6,9.11,1.25,3.68-1.71,3.45-5.09,3.49-8.45,2.1.73,7.21.74,8-1.78A4.51,4.51,0,0,0,216,214,8.67,8.67,0,0,1,210.65,214.94Z" style="fill:#BA68C8;opacity:0.30000000000000004"></path><path d="M227.06,114.08c-8.57,7.6-19.06,12.43-28.83,18.22-4.15,2.46-8.14,5.08-12.28,7.5-2.58,1.52-6.31,3.33-6.25-1.33.1-7.22,6.6-13.57,6.89-20.47-2.06,2.09-3.49,5.71-4.85,8.37-2.21,4.32-4.51,8.53-6.33,13-2.39,6-3.45,12.44-6.52,18.13S161,168.34,157.56,174c-9.15,15.1-15.13,31.68-19.47,48.73-1.11-7.89-5.36-14.66-6.89-22.42-1.6-8.06-1.81-16.22-3.92-24.22a87,87,0,0,0-10-23.35c-.76-1.25-1.69.71-1.32,1.53a87.67,87.67,0,0,1,7.23,23.39,85.1,85.1,0,0,1,1.34,12.62c0,1.58.19,3.15.1,4.71-3.18-2.63-6.42-5.33-8.69-8.83-1.83-2.83-2.73-8.45-6.41-9.64a26.82,26.82,0,0,1,2.48,7.67c.9,4,2.69,6.61,4.93,10,5,7.59,10.81,15.39,13,24.33,1.69,6.8,2,14.17,2.87,21.13.6,4.64.06,8.41-.33,13,.1-1.24-3.16-4.6-4-5.56-1.65-2-4-3.37-6-5-4.38-3.51-9.57-6.19-14.56-8.84-6-3.2-12.79-5.13-17.44-10.47-2-2.32-3.72-5.29-6.87-6.22,2.56,1.4,3.73,4.13,5.07,6.55a20.43,20.43,0,0,0,7.24,8c3.77,2.3,7.58,4.48,11.22,7,3.08,2.14,6.71,3.62,9.5,6.1s5.69,4.45,7.85,7.71a57.28,57.28,0,0,1,3.58,6c3,6.05,4.22,12.82,5,19.48.39,3.34.66,6.69.85,10,2.41,40.72-5.36,116.06-6.16,126.76-.73,2.79.75,5.74,4.47,7.89,6.22,3.59,18.59,4.07,24.81.48,3.11-1.8,4.92-4.15,4.92-6.51h0s-1.8-62.2-8.44-127.34c-.78-7.67-1.46-15.35-2-23-.22-3.36-.3-6.73-.53-10.09s-.3-20.73.9-25.85c2.11-9.07,4.73-17.28,10.45-24.78,4.36-5.72,10.42-7.83,17.19-9.42,3.45-.81,7-1.29,10.15-2.94a50,50,0,0,0,7.3-4.77c2.44-1.88,6-5.64,9.12-6.23-2.59,0-4.4.9-6.7,2.08-2.07,1.06-3.85,2.71-5.89,3.92a33.46,33.46,0,0,1-5.9,2.77c-4.49,1.61-9,2-13.66,2.22A21.12,21.12,0,0,0,163,196.29c-4,2.59-7.22,7.11-10.22,10.75-.32-3,.77-6.71,1.61-9.6,2.09-7.27,6-13.8,9.68-20.34a131.81,131.81,0,0,1,14-20.08,124,124,0,0,1,25.37-22.48c8.62-5.82,17.8-10.39,24.12-18.95C227.87,115.19,227.79,113.43,227.06,114.08Z" style="fill:#BA68C8"></path><path d="M227.06,114.08c-8.57,7.6-19.06,12.43-28.83,18.22-4.15,2.46-8.14,5.08-12.28,7.5-2.58,1.52-6.31,3.33-6.25-1.33.1-7.22,6.6-13.57,6.89-20.47-2.06,2.09-3.49,5.71-4.85,8.37-2.21,4.32-4.51,8.53-6.33,13-2.39,6-3.45,12.44-6.52,18.13S161,168.34,157.56,174c-9.15,15.1-15.13,31.68-19.47,48.73-1.11-7.89-5.36-14.66-6.89-22.42-1.6-8.06-1.81-16.22-3.92-24.22a87,87,0,0,0-10-23.35c-.76-1.25-1.69.71-1.32,1.53a87.67,87.67,0,0,1,7.23,23.39,85.1,85.1,0,0,1,1.34,12.62c0,1.58.19,3.15.1,4.71-3.18-2.63-6.42-5.33-8.69-8.83-1.83-2.83-2.73-8.45-6.41-9.64a26.82,26.82,0,0,1,2.48,7.67c.9,4,2.69,6.61,4.93,10,5,7.59,10.81,15.39,13,24.33,1.69,6.8,2,14.17,2.87,21.13.6,4.64.06,8.41-.33,13,.1-1.24-3.16-4.6-4-5.56-1.65-2-4-3.37-6-5-4.38-3.51-9.57-6.19-14.56-8.84-6-3.2-12.79-5.13-17.44-10.47-2-2.32-3.72-5.29-6.87-6.22,2.56,1.4,3.73,4.13,5.07,6.55a20.43,20.43,0,0,0,7.24,8c3.77,2.3,7.58,4.48,11.22,7,3.08,2.14,6.71,3.62,9.5,6.1s5.69,4.45,7.85,7.71a57.28,57.28,0,0,1,3.58,6c3,6.05,4.22,12.82,5,19.48.39,3.34.66,6.69.85,10,2.41,40.72-5.36,116.06-6.16,126.76-.73,2.79.75,5.74,4.47,7.89,6.22,3.59,18.59,4.07,24.81.48,3.11-1.8,4.92-4.15,4.92-6.51h0s-1.8-62.2-8.44-127.34c-.78-7.67-1.46-15.35-2-23-.22-3.36-.3-6.73-.53-10.09s-.3-20.73.9-25.85c2.11-9.07,4.73-17.28,10.45-24.78,4.36-5.72,10.42-7.83,17.19-9.42,3.45-.81,7-1.29,10.15-2.94a50,50,0,0,0,7.3-4.77c2.44-1.88,6-5.64,9.12-6.23-2.59,0-4.4.9-6.7,2.08-2.07,1.06-3.85,2.71-5.89,3.92a33.46,33.46,0,0,1-5.9,2.77c-4.49,1.61-9,2-13.66,2.22A21.12,21.12,0,0,0,163,196.29c-4,2.59-7.22,7.11-10.22,10.75-.32-3,.77-6.71,1.61-9.6,2.09-7.27,6-13.8,9.68-20.34a131.81,131.81,0,0,1,14-20.08,124,124,0,0,1,25.37-22.48c8.62-5.82,17.8-10.39,24.12-18.95C227.87,115.19,227.79,113.43,227.06,114.08Z" style="opacity:0.4"></path></g></g><g id="freepik--character-1--inject-17"><g id="freepik--character--inject-17"><g id="freepik--bottom--inject-17"><path d="M318.09,394.75l-.26.16a48.33,48.33,0,0,1-5.91,3,24,24,0,0,0-5.34,2.66c-8.16,6.14-13.94,8.28-22.65,20.32l-13.7-10.72s6.48-3.95,6.11-7a7.56,7.56,0,0,1,1.49-5.44c1.13-1.34,2.93-2.07,5.49-3a43.92,43.92,0,0,0,6.47-2.55,18.87,18.87,0,0,0,3-2,25.83,25.83,0,0,1,8.1-4.71,18.43,18.43,0,0,1,7.2-.67,25.07,25.07,0,0,1,4.32.68c1.13.28,2.75.51,3.49,1.5a2.34,2.34,0,0,0,.33.43,1.85,1.85,0,0,0,1.12.3,4.46,4.46,0,0,1,2.39.87,3.06,3.06,0,0,1,1.22,2.18,3.51,3.51,0,0,1-1,2.48A8.44,8.44,0,0,1,318.09,394.75Z" style="fill:#f28f8f"></path><path d="M308.66,399.33c3-1.85,2.94-6.23-1.91-7.32s-8.66-.42-13.53,2.58a53.86,53.86,0,0,1-12,5.7c-5.08,1.9-4.88,3.47-4.88,3.47s-1.14-4,.23-6.12c1.1-1.73,1.93-2,7.35-3.74s7.4-3,12.31-6.59c3.91-2.88,10.47-4.63,18.83-1.62,10.51,3.79,5.89,7.59,3.71,9A67.91,67.91,0,0,1,308.66,399.33Z" style="fill:#455a64"></path><path d="M216.29,381.74c4.78,3.35,15.56,7.56,23.59,11.77,13.39,7,26,13.65,31.9,20.22,5.08,5.7,9.84,16.41-4.4,20.38-8.12,2.26-28-.69-37-4.37l-20.93-12.9Z" style="fill:#37474f"></path><path d="M338.89,377.48l-.28.12a49.52,49.52,0,0,1-6.26,2.22,24.29,24.29,0,0,0-5.65,1.91c-8.9,5-14.91,6.36-25.15,17.13,0,0-11.12-11.4-12.16-12.44,0,0,7-3.06,7-6.17a7.57,7.57,0,0,1,2.2-5.19c1.29-1.18,3.18-1.67,5.84-2.21a44.67,44.67,0,0,0,6.75-1.67,18.67,18.67,0,0,0,3.24-1.58,25.88,25.88,0,0,1,8.66-3.6,18.31,18.31,0,0,1,7.22.3,24.6,24.6,0,0,1,4.19,1.25c1.09.43,2.66.87,3.26,1.95a2.2,2.2,0,0,0,.27.47,1.89,1.89,0,0,0,1.07.45,4.39,4.39,0,0,1,2.25,1.18,3.08,3.08,0,0,1,.93,2.32,3.52,3.52,0,0,1-1.29,2.33A8.45,8.45,0,0,1,338.89,377.48Z" style="fill:#ffa8a7"></path><path d="M328.93,380.77c3.18-1.44,3.75-5.79-.92-7.52s-8.52-1.56-13.75.77a54.07,54.07,0,0,1-12.67,4.05c-5.28,1.2-5.29,2.79-5.29,2.79s-.6-4.1,1-6c1.32-1.57,2.17-1.7,7.79-2.73s7.72-2,13.07-4.89c4.26-2.33,11-3.2,18.88.9,9.91,5.15,4.83,8.31,2.48,9.38A67.8,67.8,0,0,1,328.93,380.77Z" style="fill:#455a64"></path><path d="M273.42,431.31c8.23-5.82,29.5-33.38,29.5-33.38.81-3.71-1.36-7.11-3.92-9.53-4.28-4.06-7.83-3.25-7.83-3.25-3,2-5.94,3.1-13.73,6.79-6.53,3.08-16.88,8.32-21,15.47S273.42,431.31,273.42,431.31Z" style="fill:#37474f"></path><path d="M259,404c7.54,3.93,10.38,8,10.38,8s-2.66-7.29-8.79-9.63A17.29,17.29,0,0,0,259,404Z" style="fill:#263238"></path><path d="M160.59,400c-1.09,19.92,3.64,30.79,17.3,38.68,16.86,9.73,24.77,12.46,35.55,15.3,11.37,3,26.07,1.79,32.36-4.35,5.86-5.7.92-11.94-.71-15.49-4-8.69-34.36-23.48-34.36-23.48,4-10.74,6.33-18.68,5.18-27.42Z" style="fill:#455a64"></path><path d="M243.2,451.58c7.5-4.44,21.39-16.94,21.39-16.94-3.45-.06-5.57-1.71-10-4.51-5.29-3.33-8.54-4.69-16.63-3.43C237.94,426.7,237.11,455.2,243.2,451.58Z" style="fill:#455a64"></path><path d="M237.94,426.7a18.39,18.39,0,0,1,5.2,4.76,9.28,9.28,0,0,0-4.17-5.7Z" style="fill:#37474f"></path><path d="M216.8,413.73c-7.2-4.16-18.16-4.15-26.61-1.3,2-3.37,12.47-6.12,22.41-4.34A13.93,13.93,0,0,1,216.8,413.73Z" style="fill:#37474f"></path><path d="M166,401.42l1.33-.13c.24,13.93,4,24,10.49,30.26,5.36-3.7,4.43-9.87,2.66-14.46a59.08,59.08,0,0,1-3.4-14.68l1.33-.11a58,58,0,0,0,3.31,14.31c2.69,7,1.65,12.56-2.9,15.87.71.64,1.44,1.27,2.23,1.9,7.66,6.11,26.74,17.92,46.32,21.1a50.23,50.23,0,0,1-8.22-.44c-16.87-4.61-32.22-14.28-38.93-19.62C171,428.12,166.51,419.35,166,401.42Z" style="fill:#37474f"></path></g><g id="freepik--top--inject-17"><path d="M170.05,279.46c-4.07.47-6.38,5.42-7,12.53-.78,8.55-5.18,11.17-6.28,15.9-1.71,7.4,1.3,10.32,5.92,11.93-1.59-4.22.68-6.37.68-6.37s-1.39,5.22,2.21,7.73,9.82,2.56,12.71,2c5.44-1,7.38-2.82,7.38-2.82s3.62,3.75,11,2.48,11.18-8.59,7.7-13.66-12.88-29.76-12.88-29.76Z" style="fill:#37474f"></path><path d="M199.28,323.48c9.66,1.52,13.6,1.42,21.2,16.33,5.34,10.5,16.9,32.25,16.9,32.25l-14.76,10.71c-5.39-9.71-11.22-19.32-20-33.55Z" style="fill:#ffa8a7"></path><path d="M212.56,358.54c5.51-8.65,3.19-14.88,1.3-18.51-3.79-7.26-14.58-16.55-14.58-16.55a64,64,0,0,0-15.83-1.74,56,56,0,0,0-14.56,2.17l-6.89,2.9c3.21,4,4.71,11.26,4.47,15.88-.57,11-4.08,13.82-4.08,13.82s1.45,11.54,2.15,14.29c.48,1.86-.55,7.2-1.53,10.71a137,137,0,0,0-3.5,17.51,2.21,2.21,0,0,0,1.47,2.33c19.86,6.76,49.12-5.3,57.76-18.15-.59-3.34-4.8-8.84-5.54-12.4C212.33,366.6,212.11,364.91,212.56,358.54Z" style="fill:#37474f"></path><path d="M196.29,361.57s-4.24,5.29-13.36,3.76S172,356.92,172,356.92s-.55,8.86,10.36,10.64C193.11,369.32,196.29,361.57,196.29,361.57Z" style="fill:#263238"></path><path d="M174.53,313.45s29.7-15,31.39-16c1.52-.93,3-1.7,4-3.21,1.87-3,1.82-6.18.84-9.58a16.73,16.73,0,0,0-2.64-5,18.81,18.81,0,0,0-9.86-7.42c-7.56-2.83-17.1-2.27-23.57,2.58-5.71,4.28-8.53,10.6-8.67,15.61C165.65,302.89,174,309.29,174.53,313.45Z" style="fill:#37474f"></path><path d="M202.67,283c1.94,1,5.58,8.94,3.59,22.34-1.56,10.47-5.66,12.44-7.75,12.93a20.31,20.31,0,0,1-7.73-.19v4.09c-3.24,4.11-8.9,3.85-16.71.55a65,65,0,0,1,.39-15s-3.81,1.74-6.49-1.29a8.62,8.62,0,0,1-.91-10.17,5.45,5.45,0,0,1,5.1-2.24c2.18.2,4.16,1.74,4.32,3.83.24,2.3,2.4,3,3.67,1.3a11.75,11.75,0,0,0,2-7.1C189.81,292.85,200.18,289.75,202.67,283Z" style="fill:#ffa8a7"></path><path d="M193.78,309.86a1.48,1.48,0,1,1-2.87-.71c.19-.8.79-.44,1.58-.25S194,309.07,193.78,309.86Z" style="fill:#b16668"></path><path d="M190.78,318.07c-7.47-1.88-13.05-6.1-13.7-9.43a8.17,8.17,0,0,0,1.46,5.63c2.7,3.5,12.24,6.91,12.24,6.91Z" style="fill:#f28f8f"></path><path d="M192,298.18a1.76,1.76,0,0,1-1.13,2.23,1.78,1.78,0,0,1-2.19-1.22,1.46,1.46,0,0,1,1.1-1.94A1.65,1.65,0,0,1,192,298.18Z" style="fill:#263238"></path><path d="M204,299.14a1.73,1.73,0,1,1-3.43-.49c.13-1,1-1.33,1.94-1.19S204.12,298.16,204,299.14Z" style="fill:#263238"></path><path d="M195.08,296.62l.21,9.7,5.84-1.12C200.55,302.83,196.72,297.63,195.08,296.62Z" style="fill:#f28f8f"></path><path d="M204.55,295.72l-3.65-1.64a1.92,1.92,0,0,1,2.58-1.05A2.11,2.11,0,0,1,204.55,295.72Z" style="fill:#263238"></path><path d="M187.5,295.53l3.79-1.27a1.92,1.92,0,0,0-2.46-1.3A2.1,2.1,0,0,0,187.5,295.53Z" style="fill:#263238"></path><path d="M237.39,354.29s-.17-1.6,1.87-3.23,4.75-3,5.49-6.9l3,1.56-4.57,8.41Z" style="fill:#BA68C8"></path><path d="M237.39,354.29s-.17-1.6,1.87-3.23,4.75-3,5.49-6.9l3,1.56-4.57,8.41Z" style="fill:#fff;opacity:0.75"></path><path d="M237.39,354.29s-3.24-1.47-10.12.24-12.49,3.78-25.84,4L205,360.4,239.52,357Z" style="fill:#BA68C8"></path><path d="M237.39,354.29s-3.24-1.47-10.12.24-12.49,3.78-25.84,4L205,360.4,239.52,357Z" style="fill:#fff;opacity:0.75"></path><polygon points="201.43 358.53 190.6 398.87 194.14 400.73 204.97 360.4 201.43 358.53" style="fill:#BA68C8"></polygon><polygon points="201.43 358.53 190.6 398.87 194.14 400.73 204.97 360.4 201.43 358.53" style="fill:#fff;opacity:0.8"></polygon><polygon points="201.43 358.53 190.6 398.87 194.14 400.73 204.97 360.4 201.43 358.53" style="opacity:0.1"></polygon><g style="opacity:0.1"><path d="M244.83,346.3a6.75,6.75,0,0,1-1.34,2.3,19.82,19.82,0,0,1-1.91,1.87,13.17,13.17,0,0,0-1.88,1.85,4.61,4.61,0,0,0-.65,1.11,2.67,2.67,0,0,0-.2,1.19l-.42.07a3,3,0,0,1,.28-1.41,5.2,5.2,0,0,1,.74-1.16,13.56,13.56,0,0,1,2-1.81,20.82,20.82,0,0,0,2-1.78A6.79,6.79,0,0,0,244.83,346.3Z"></path><path d="M244.37,348.57a7,7,0,0,1-1,1.41c-.38.43-.77.86-1.14,1.29a8.81,8.81,0,0,0-1,1.39,3.44,3.44,0,0,0-.49,1.56l-.43,0a3.9,3.9,0,0,1,.64-1.68,9.23,9.23,0,0,1,1.11-1.37c.4-.42.82-.82,1.23-1.22A7,7,0,0,0,244.37,348.57Z"></path><path d="M214.78,358.31a53.28,53.28,0,0,0,5.61-1.05c1.86-.45,3.68-1,5.52-1.49a25.88,25.88,0,0,1,5.66-1,19.77,19.77,0,0,1,2.88,0,9,9,0,0,1,1.44.22,3.49,3.49,0,0,1,1.38.62L237,356a3.09,3.09,0,0,0-1.2-.56,9,9,0,0,0-1.38-.23,20.51,20.51,0,0,0-2.83-.05A26,26,0,0,0,226,356c-1.85.47-3.69,1-5.55,1.38A51.46,51.46,0,0,1,214.78,358.31Z"></path><path d="M223.93,357.78c1.07-.19,2.12-.45,3.17-.7s2.12-.48,3.19-.66a20.84,20.84,0,0,1,3.26-.35,9.17,9.17,0,0,1,3.27.47l-.16.4a8.6,8.6,0,0,0-3.11-.55,20.44,20.44,0,0,0-3.22.24c-1.07.15-2.14.35-3.2.56S225,357.63,223.93,357.78Z"></path></g><polygon points="247.65 343.73 242.32 353.69 230.7 396.93 232.47 397.86 237.71 385.71 249.41 344.66 247.65 343.73" style="fill:#BA68C8"></polygon><polygon points="244.09 354.62 249.41 344.66 237.71 385.71 232.47 397.86 244.09 354.62" style="opacity:0.2"></polygon><polygon points="236.76 357.2 202.69 360.72 191.07 403.96 192.84 404.89 226.91 401.37 238.53 358.13 236.76 357.2" style="fill:#BA68C8"></polygon><polygon points="204.46 361.65 192.84 404.89 226.91 401.37 238.53 358.13 204.46 361.65" style="opacity:0.2"></polygon><polygon points="202.69 360.72 204.46 361.65 192.84 404.89 191.07 403.96 202.69 360.72" style="opacity:0.35000000000000003"></polygon><path d="M238.53,358.13l5.56-3.51-11.62,43.24c-.79,2.34-2.7,3.45-5.56,3.51Z" style="fill:#BA68C8"></path><path d="M238.53,358.13l5.56-3.51-11.62,43.24c-.9,2.48-2.87,3.49-5.56,3.51Z" style="opacity:0.35000000000000003"></path><path d="M242.12,353.58c-1.08-.57-3.2-.26-4.73.71s-1.91,2.22-.82,2.79l2,1.05,5.56-3.51-1.77-.93Z" style="fill:#455a64"></path><path d="M242.32,353.69c-.27,1.65-2.33,2.76-5.56,3.51l1.77.93c2.78-.43,4.59-1.64,5.56-3.51Z" style="fill:#BA68C8"></path><path d="M163,326.45c-8.42,2.69-13.08,5.49-14.46,15a297,297,0,0,0-3.27,38.93c-.11,4.18-.45,9.53,8.9,11.74,12,2.83,29.54,4.39,33.92,4.75,2.8.23,9,.78,11.15.52,6.83-.82,10.46-4.89,12.6-7,1.19-1.18,2.34-2.61,2.32-4.28a5.72,5.72,0,0,1,0-1.6,7.25,7.25,0,0,1,.76-1.39,2.78,2.78,0,0,0,.28-1.72,9.57,9.57,0,0,1-.31-1.56c0-1.07,1-1.85,1.45-2.83a1,1,0,0,0,.1-.47c0-.35-.42-.56-.77-.64a7,7,0,0,0-4.62,1c-4.3,2.64-6.77,5.91-12.82,6.08-1.45,0-3.2-.54-2.82-1.94l.74-2.76c-3.46.71-5.32,4.11-8.17,4.7-2.53.52-23-6.31-23-6.31l3-24S171.29,333.11,163,326.45Z" style="fill:#ffa8a7"></path><path d="M242.61,368.54a24.49,24.49,0,0,1-2.25,4.39c-.65,1.13-.55,2.44.2,2.77l-2,7.16s1,.11,3.08-2.32,3.51-7,3.9-9.42.69-6.84-1.39-7.88Z" style="fill:#ffa8a7"></path><path d="M173.82,315.6c0,.68,0,1.4,0,1.4s1.27,2.06,5.36,3.55c6.12,2.25,10.74,1.18,11.62-.35v-1a1.89,1.89,0,0,1,1.49,1,14,14,0,0,0,2,3.54c1,1.09-2.35,6.27-9.5,6.27-7.45,0-14.17-5.54-16.79-5.72l-.68.29s0-.9,1.48-2.39C170.7,320.29,170.91,315.39,173.82,315.6Z" style="fill:#455a64"></path><path d="M172.74,318.41A2.81,2.81,0,0,1,174,317.3a1.76,1.76,0,0,1-.2-.26,2.7,2.7,0,0,0-1,.76,7.68,7.68,0,0,0-1.17,2.76,6.9,6.9,0,0,1-.61,1.52,10.55,10.55,0,0,1-1,1.26,3,3,0,0,0-.69,1.28l.25.11a5.78,5.78,0,0,1,1.19-1.65,5.61,5.61,0,0,0,1.1-2.16A10.07,10.07,0,0,1,172.74,318.41Zm5,1.55c-.21-.09-.38-.19-.57-.29a2,2,0,0,0-.73.83,5.9,5.9,0,0,0-.37,1.43,3.38,3.38,0,0,1-.73,1.51,5.72,5.72,0,0,0-1.39,2.23,3.85,3.85,0,0,0-.11,1.17l.29.14a4.08,4.08,0,0,1,.22-1.46,7.38,7.38,0,0,1,1.35-1.93,5,5,0,0,0,.8-2.09A1.92,1.92,0,0,1,177.74,320Zm2.13.83-.56-.19a2.37,2.37,0,0,0-.71.9c-.4.89-.3,1.94-.79,2.8-.22.39-.53.71-.77,1.09a3.9,3.9,0,0,0-.44,1.1,4.06,4.06,0,0,0,0,1.6l.34.15a5.67,5.67,0,0,1-.1-.57,3.18,3.18,0,0,1,.13-1.26,14.68,14.68,0,0,1,1.21-2,15.71,15.71,0,0,0,.59-2.24A2.21,2.21,0,0,1,179.87,320.79Zm-4.16-2c-.11-.07-.19-.15-.29-.22-.95.86-1.19,2.73-1.85,3.68s-1.47,1.37-1.91,2.33a4.4,4.4,0,0,0-.28,1l.29.14a3.17,3.17,0,0,1,.39-1.21c.45-.79,1.26-1.28,1.76-2C174.5,321.46,174.68,319.61,175.71,318.8Zm12.19,6.87a6.34,6.34,0,0,1,0-1.74,4.94,4.94,0,0,0-.14-1.38,3.45,3.45,0,0,0-.36-.81l-.28,0a2.84,2.84,0,0,1,.52,1.4c.09.81-.14,1.63,0,2.43a8.2,8.2,0,0,0,.3,1,4.47,4.47,0,0,1,.21,1.45,4.81,4.81,0,0,1-.15,1.2c0,.15-.11.29-.16.44l.35-.08a6.92,6.92,0,0,0,.18-1.15,5.31,5.31,0,0,0-.06-1.38C188.22,326.56,188,326.14,187.9,325.67Zm5.71-1.38a10,10,0,0,0-1.59-1.66c-.62-.68-.41-1.66-1-2.37a2.54,2.54,0,0,0-.28-.29v.23a1.55,1.55,0,0,1-.13.17,1.61,1.61,0,0,1,.5.76,3.87,3.87,0,0,0,.73,1.83,13.51,13.51,0,0,1,1.44,1.39,3.32,3.32,0,0,1,.49,1.54l.22-.35A3.77,3.77,0,0,0,193.61,324.29Zm-2.87.37a3,3,0,0,1-.64-1.47,6,6,0,0,0-.23-1.26,1.84,1.84,0,0,0-.47-.69l-.25.09a2.09,2.09,0,0,1,.57,1,8,8,0,0,0,.47,2.12,9.46,9.46,0,0,1,1.15,1.84,3.44,3.44,0,0,1,0,2l.36-.24a3.46,3.46,0,0,0,0-1.2A4,4,0,0,0,190.74,324.66Zm-6.91-1.2a16.94,16.94,0,0,1-.35,2.86,7.54,7.54,0,0,0-.67,2.26,4.46,4.46,0,0,0,.13,1.29l.3,0a3.55,3.55,0,0,1-.12-1.78c.16-.75.64-1.38.81-2.12s.06-1.48.18-2.22a8.74,8.74,0,0,1,.71-2l-.32,0A4.07,4.07,0,0,0,183.83,323.46Zm-2.81-1c-.32,1-.22,2.08-.84,3a6.51,6.51,0,0,0-1.28,2.28,4.48,4.48,0,0,0-.09,1.17l.31.1a3.24,3.24,0,0,1,0-1.31,9.09,9.09,0,0,1,1.33-2.21,6.31,6.31,0,0,0,.6-2.22,3.77,3.77,0,0,1,.38-1.19,2.08,2.08,0,0,1,.67-.68l-.44-.1A3,3,0,0,0,181,322.48Z" style="fill:#37474f"></path></g></g></g></svg>